<?xml version="1.0" encoding="UTF-8"?>
<svg id="Layer_1" xmlns="http://www.w3.org/2000/svg" version="1.1" xmlns:xlink="http://www.w3.org/1999/xlink" viewBox="0 0 800 600">
  <!-- Generator: Adobe Illustrator 29.3.1, SVG Export Plug-In . SVG Version: 2.1.0 Build 151)  -->
  <defs>
    <style>
      .st0 {
        fill: #000001;
      }

      .st1 {
        fill: url(#radial-gradient);
      }

      .st1, .st2, .st3, .st4, .st5 {
        stroke: #090;
      }

      .st1, .st3, .st6, .st7, .st8, .st4, .st9, .st5 {
        stroke-width: .5px;
      }

      .st1, .st3, .st9, .st5 {
        stroke-dasharray: 2 1;
      }

      .st10 {
        fill: #ffcc80;
      }

      .st10, .st11, .st12, .st13, .st7, .st14, .st9 {
        stroke: #333;
      }

      .st15 {
        fill: #fff;
      }

      .st15, .st16 {
        font-size: 8px;
      }

      .st15, .st16, .st17, .st18, .st19, .st20, .st21, .st22, .st23, .st24, .st25 {
        isolation: isolate;
      }

      .st15, .st16, .st18, .st19, .st21, .st23, .st25 {
        font-family: ArialMT, Arial;
      }

      .st16, .st17, .st19, .st20, .st21, .st22, .st25 {
        fill: #333;
      }

      .st26, .st18, .st24 {
        fill: #090;
      }

      .st17, .st20, .st22, .st24 {
        font-family: Arial-BoldMT, Arial;
        font-weight: 700;
      }

      .st17, .st21, .st23, .st24 {
        font-size: 12px;
      }

      .st2, .st27, .st7, .st9 {
        fill: none;
      }

      .st2, .st14 {
        stroke-width: 1.5px;
      }

      .st18, .st19 {
        font-size: 10px;
      }

      .st20 {
        font-size: 24px;
      }

      .st11 {
        fill: #555;
      }

      .st3 {
        fill: url(#radial-gradient2);
      }

      .st22 {
        font-size: 16px;
      }

      .st28 {
        fill: url(#radial-gradient5);
      }

      .st6 {
        fill: #f9f9f9;
        fill-opacity: .8;
        stroke: #ddd;
      }

      .st29 {
        clip-path: url(#clippath-1);
      }

      .st12, .st30 {
        fill: #222;
      }

      .st13 {
        fill: #e1e1e1;
      }

      .st30, .st8 {
        stroke: #444;
      }

      .st23 {
        fill: #4fc3f7;
      }

      .st8 {
        fill: #aaa;
      }

      .st4 {
        fill: #2f2;
      }

      .st14 {
        fill: url(#linear-gradient);
      }

      .st31 {
        fill: url(#radial-gradient4);
      }

      .st32 {
        fill: url(#radial-gradient3);
      }

      .st25 {
        font-size: 9px;
      }

      .st5 {
        fill: url(#radial-gradient1);
      }

      .st33 {
        clip-path: url(#clippath);
      }
    </style>
    <linearGradient id="linear-gradient" x1="299" y1="401.1" x2="300" y2="400.1" gradientTransform="translate(-89450 72440) scale(300 -180)" gradientUnits="userSpaceOnUse">
      <stop offset="0" stop-color="#d5e6f3"/>
      <stop offset="1" stop-color="#a7c9e5"/>
    </linearGradient>
    <radialGradient id="radial-gradient" cx="299" cy="401.3" fx="299" fy="401.3" r=".5" gradientTransform="translate(-59400 45888.5) scale(200 -113.7)" gradientUnits="userSpaceOnUse">
      <stop offset="0" stop-color="#090" stop-opacity=".3"/>
      <stop offset="1" stop-color="#090" stop-opacity="0"/>
    </radialGradient>
    <radialGradient id="radial-gradient1" cx="297.5" cy="402" fx="297.5" fy="402" r=".5" gradientTransform="translate(-29400 32470) scale(100 -80)" gradientUnits="userSpaceOnUse">
      <stop offset="0" stop-color="#090" stop-opacity=".3"/>
      <stop offset="1" stop-color="#090" stop-opacity="0"/>
    </radialGradient>
    <radialGradient id="radial-gradient2" cx="297.7" cy="402" fx="297.7" fy="402" r=".5" gradientTransform="translate(-31358.9 32470) scale(106.9 -80)" gradientUnits="userSpaceOnUse">
      <stop offset="0" stop-color="#090" stop-opacity=".3"/>
      <stop offset="1" stop-color="#090" stop-opacity="0"/>
    </radialGradient>
    <radialGradient id="radial-gradient3" cx="280.5" cy="412.8" fx="280.5" fy="412.8" r=".5" gradientTransform="translate(-4140 6760) scale(15 -15)" gradientUnits="userSpaceOnUse">
      <stop offset="0" stop-color="#090" stop-opacity=".3"/>
      <stop offset="1" stop-color="#090" stop-opacity="0"/>
    </radialGradient>
    <radialGradient id="radial-gradient4" cx="280.5" cy="412.8" fx="280.5" fy="412.8" r=".5" gradientTransform="translate(-4020 6760) scale(15 -15)" gradientUnits="userSpaceOnUse">
      <stop offset="0" stop-color="#090" stop-opacity=".3"/>
      <stop offset="1" stop-color="#090" stop-opacity="0"/>
    </radialGradient>
    <radialGradient id="radial-gradient5" cx="280.5" cy="412.8" fx="280.5" fy="412.8" r=".5" gradientTransform="translate(-3900 6760) scale(15 -15)" gradientUnits="userSpaceOnUse">
      <stop offset="0" stop-color="#090" stop-opacity=".3"/>
      <stop offset="1" stop-color="#090" stop-opacity="0"/>
    </radialGradient>
    <clipPath id="clippath">
      <rect class="st27" x="94.7" y="30" width="155.1" height="42.3"/>
    </clipPath>
    <clipPath id="clippath-1">
      <rect class="st27" x="94.7" y="30" width="155.1" height="42.3"/>
    </clipPath>
  </defs>
  <text class="st20" transform="translate(261.3 58)"><tspan x="0" y="0">- Top View (Sensor Coverage Visualization)</tspan></text>
  <g>
    <text class="st22" transform="translate(365.6 220)"><tspan x="0" y="0">Top View</tspan></text>
    <rect class="st14" x="250" y="240" width="300" height="180" rx="5" ry="5"/>
    <rect class="st30" x="330" y="255" width="140" height="60"/>
    <text class="st23" transform="translate(362 290)"><tspan x="0" y="0">OdAR System</tspan></text>
    <line class="st9" x1="400" y1="255" x2="400" y2="225"/>
    <text class="st19" transform="translate(352.4 215)"><tspan x="0" y="0">OLED Display (0.96&quot;)</tspan></text>
    <circle class="st11" cx="325" cy="380" r="10"/>
    <text class="st19" transform="translate(310.3 400)"><tspan x="0" y="0">MENU</tspan></text>
    <circle class="st11" cx="400" cy="380" r="10"/>
    <text class="st19" transform="translate(380.5 400)"><tspan x="0" y="0">SELECT</tspan></text>
    <circle class="st11" cx="475" cy="380" r="10"/>
    <text class="st19" transform="translate(461.4 400)"><tspan x="0" y="0">BACK</tspan></text>
    <circle class="st4" cx="520" cy="380" r="5"/>
    <text class="st19" transform="translate(508.3 400)"><tspan x="0" y="0">PWR</tspan></text>
    <circle class="st13" cx="300" cy="270" r="15"/>
    <circle class="st8" cx="300" cy="270" r="10"/>
    <text class="st19" transform="translate(271.7 255)"><tspan x="0" y="0">HC-SR04 #1</tspan></text>
    <text class="st25" transform="translate(289.5 295)"><tspan x="0" y="0">Front</tspan></text>
    <rect class="st12" x="500" y="270" width="30" height="30" rx="2" ry="2"/>
    <text class="st15" transform="translate(506.6 285)"><tspan x="0" y="0">OSA</tspan></text>
    <text class="st19" transform="translate(495 255)"><tspan x="0" y="0">Olfactory</tspan></text>
    <text class="st25" transform="translate(489 325)"><tspan x="0" y="0">Sensor Array</tspan></text>
    <circle class="st13" cx="300" cy="350" r="15"/>
    <circle class="st8" cx="300" cy="350" r="10"/>
    <text class="st19" transform="translate(213.3 350)"><tspan x="0" y="0">HC-SR04 #2</tspan></text>
    <text class="st25" transform="translate(282.2 330)"><tspan x="0" y="0">Left Side</tspan></text>
    <circle class="st13" cx="500" cy="350" r="15"/>
    <circle class="st8" cx="500" cy="350" r="10"/>
    <text class="st19" transform="translate(530 350)"><tspan x="0" y="0">HC-SR04 #3</tspan></text>
    <text class="st25" transform="translate(479.2 330)"><tspan x="0" y="0">Right Side</tspan></text>
    <rect class="st10" x="475" y="280" width="40" height="20" rx="2" ry="2"/>
    <text class="st16" transform="translate(478.5 323)"><tspan x="0" y="0">VL53L1X</tspan></text>
    <text class="st25" transform="translate(451 300)"><tspan x="0" y="0">ToF Sensor (Optional)</tspan></text>
    <path class="st1" d="M400,330l-100-60c36.6-55.2,111.1-70.3,166.3-33.7,13.4,8.9,24.8,20.3,33.7,33.7l-100,60Z"/>
    <path class="st5" d="M400,330l-100,20c9.2-25.9,9.2-54.1,0-80l100,60Z"/>
    <path class="st3" d="M400,330l100,20c9.2-25.9,9.2-54.1,0-80l-100,60Z"/>
    <path class="st2" d="M400,330v-75"/>
    <path class="st26" d="M400,255l-5,10,5-15,5,15-5-10Z"/>
    <text class="st18" transform="translate(381.7 240)"><tspan x="0" y="0">Forward</tspan></text>
    <path class="st2" d="M400,330h-120"/>
    <path class="st26" d="M280,330l10-5-15,5,15,5-10-5Z"/>
    <text class="st18" transform="translate(256.7 330)"><tspan x="0" y="0">Left</tspan></text>
    <path class="st2" d="M400,330h120"/>
    <path class="st26" d="M520,330l-10-5,15,5-15,5,10-5Z"/>
    <text class="st18" transform="translate(523.3 330)"><tspan x="0" y="0">Right</tspan></text>
    <text class="st24" transform="translate(301.6 425)"><tspan x="0" y="0">360° Ranging Coverage (Up to 4m)</tspan></text>
    <line class="st7" x1="225" y1="240" x2="225" y2="420"/>
    <line class="st7" x1="222" y1="240" x2="228" y2="240"/>
    <line class="st7" x1="222" y1="420" x2="228" y2="420"/>
    <text class="st21" transform="translate(210 346.7) rotate(-90)"><tspan x="0" y="0">60mm</tspan></text>
    <line class="st7" x1="250" y1="445" x2="550" y2="445"/>
    <line class="st7" x1="250" y1="448" x2="250" y2="442"/>
    <line class="st7" x1="550" y1="448" x2="550" y2="442"/>
    <text class="st21" transform="translate(380 460)"><tspan x="0" y="0">100mm</tspan></text>
  </g>
  <rect class="st6" x="40" y="530" width="320" height="50" rx="5" ry="5"/>
  <text class="st17" transform="translate(124 550)"><tspan x="0" y="0">Ranging Coverage Legend</tspan></text>
  <rect class="st32" x="60" y="560" width="15" height="15"/>
  <text class="st19" transform="translate(85 573)"><tspan x="0" y="0">Front Coverage (180°)</tspan></text>
  <rect class="st31" x="180" y="560" width="15" height="15"/>
  <text class="st19" transform="translate(205 573)"><tspan x="0" y="0">Left Coverage (90°)</tspan></text>
  <rect class="st28" x="300" y="560" width="15" height="15"/>
  <text class="st19" transform="translate(325 573)"><tspan x="0" y="0">Right Coverage (90°)</tspan></text>
  <rect class="st6" x="440" y="530" width="320" height="50" rx="5" ry="5"/>
  <text class="st17" transform="translate(540.3 550)"><tspan x="0" y="0">System Performance</tspan></text>
  <text class="st19" transform="translate(460 573)"><tspan x="0" y="0">• Range: Up to 4m with ±2cm accuracy</tspan></text>
  <text class="st19" transform="translate(605 573)"><tspan x="0" y="0">• Source Tracking: 0.5 m/s max speed</tspan></text>
  <g id="Artwork_894">
    <g class="st33">
      <g class="st29">
        <path class="st0" d="M114.6,30c9.3-.6,18.4,5.8,21.3,14.6,1.8,5.4,1.2,11.6-1.6,16.6-4,7.5-12.9,12.1-21.3,10.9-5.1-.6-9.9-3.2-13.2-7.1-2.9-3.2-4.6-7.5-5.1-11.8-.5-5.4,1.1-11,4.5-15.3,3.6-4.7,9.4-7.7,15.4-8M112.3,42.9c-3.3.8-5.5,4.2-5.2,7.5.4,4.2,3.8,7.8,7.8,9.1,2.1.7,4.7.6,6.6-.7,2-1.4,3.2-3.9,3-6.3,0-2.8-1.8-5.3-3.8-7.1-2.3-1.9-5.3-3.3-8.4-2.5"/>
        <path class="st0" d="M138.6,31.4c4.3,0,8.5,0,12.8,0,2.9,0,5.8-.2,8.6.4,4.4.8,8.5,3.2,11.3,6.6,2.7,3.2,4.3,7.3,4.7,11.5,2.5-6.2,5-12.4,7.6-18.5,4.9,0,9.8,0,14.7,0,4,9.8,7.7,19.7,11.9,29.5.2-9.8,0-19.7.1-29.5,8.2,0,16.4,0,24.6,0,3.7-.1,7.3,1.8,9.6,4.7,3.3,4.3,3.5,10.5,1,15.2-1.3,2.4-3.7,4.3-6.3,5,3.5,4.9,7,9.7,10.5,14.6-5.3,0-10.7,0-16,0-3.2-4.5-6.3-9.1-9.7-13.4,0,4.5,0,8.9,0,13.4-8.1,0-16.2,0-24.3,0-.4-1.1-.9-2.2-1.3-3.3-4.7,0-9.4,0-14.1,0,1.6-3.5,3.1-7.1,4.7-10.6,1.7,0,3.5,0,5.2,0-1.1-3-2.2-5.9-3.4-8.9-1.5,3.1-2.7,6.3-4,9.5-1.8,4.5-3.8,8.9-5.6,13.3-4.8,0-9.6,0-14.4,0,.6-1.4,1.1-2.7,1.7-4.1-3.8,2.7-8.4,4.2-13,4.1-5.7,0-11.3,0-17,0,0-13.1,0-26.3,0-39.4M224.2,43.1c0,1.5,0,3,0,4.5,2.3,0,4.6,0,7,0,.5,0,1,0,1.5-.2,1.7-.8,1.7-3.7-.2-4.3-2.8-.1-5.6,0-8.3,0M151.9,44.4c0,4.5,0,9,0,13.5,2,0,4,.2,6-.2,2.8-.6,4.4-3.5,4.3-6.2,0-2.6-.9-5.6-3.5-6.7-2.2-.8-4.6-.3-6.8-.5"/>
      </g>
    </g>
  </g>
</svg>