<?xml version="1.0" encoding="UTF-8"?>
<svg id="Layer_1" xmlns="http://www.w3.org/2000/svg" version="1.1" xmlns:xlink="http://www.w3.org/1999/xlink" viewBox="0 0 800 600">
  <!-- Generator: Adobe Illustrator 29.3.1, SVG Export Plug-In . SVG Version: 2.1.0 Build 151)  -->
  <defs>
    <style>
      .st0 {
        fill: #90caf9;
      }

      .st1 {
        fill: #000001;
      }

      .st2 {
        stroke: #03a9f4;
      }

      .st2, .st3, .st4, .st5, .st6, .st7, .st8, .st9, .st10, .st11, .st12, .st13, .st14 {
        stroke-width: .5px;
      }

      .st2, .st15, .st8, .st10, .st11, .st13, .st14, .st16 {
        fill: none;
      }

      .st2, .st10, .st11, .st14 {
        stroke-dasharray: 2 1;
      }

      .st17, .st18, .st19, .st20, .st21, .st22, .st23, .st24, .st25 {
        isolation: isolate;
      }

      .st17, .st19, .st21, .st23, .st25 {
        font-family: ArialMT, Arial;
      }

      .st17, .st24 {
        font-size: 8px;
      }

      .st17, .st25 {
        fill: #fff;
      }

      .st18 {
        font-size: 14px;
      }

      .st18, .st19, .st20, .st21, .st22, .st24 {
        fill: #333;
      }

      .st18, .st20, .st22, .st24 {
        font-family: Arial-BoldMT, Arial;
        font-weight: 700;
      }

      .st3 {
        fill: #96b8d4;
      }

      .st3, .st11, .st12, .st13 {
        stroke: #555;
      }

      .st4, .st26, .st27, .st7, .st8, .st28, .st10 {
        stroke: #333;
      }

      .st4, .st29 {
        fill: #222;
      }

      .st19, .st23 {
        font-size: 10px;
      }

      .st20 {
        font-size: 24px;
      }

      .st21 {
        font-size: 12px;
      }

      .st22 {
        font-size: 16px;
      }

      .st5 {
        fill: #f9f9f9;
        fill-opacity: .8;
      }

      .st5, .st6 {
        stroke: #ddd;
      }

      .st30 {
        clip-path: url(#clippath-1);
      }

      .st26 {
        fill: #e1e1e1;
      }

      .st27 {
        fill: #a7c9e5;
      }

      .st6 {
        fill: #f8f8f8;
      }

      .st29, .st9 {
        stroke: #444;
      }

      .st31 {
        fill: #666;
      }

      .st7 {
        stroke-dasharray: 1 1;
      }

      .st23 {
        fill: #0c7d3e;
      }

      .st9 {
        fill: #aaa;
      }

      .st32 {
        fill: #03a9f4;
        stroke: #0288d1;
      }

      .st28 {
        fill: url(#linear-gradient);
        stroke-width: 1.5px;
      }

      .st25 {
        font-size: 6px;
      }

      .st33 {
        fill: #ef9a9a;
      }

      .st12 {
        fill: #777;
      }

      .st14 {
        stroke: #f44336;
      }

      .st34 {
        clip-path: url(#clippath);
      }

      .st16 {
        stroke: #0c7d3e;
        stroke-dasharray: 4 2;
      }

      .st35 {
        fill: url(#linear-gradient1);
        stroke: #b71c1c;
      }
    </style>
    <linearGradient id="linear-gradient" x1="299" y1="402" x2="300" y2="401" gradientTransform="translate(-89450 40440) scale(300 -100)" gradientUnits="userSpaceOnUse">
      <stop offset="0" stop-color="#9abcdd"/>
      <stop offset="1" stop-color="#6d9bc8"/>
    </linearGradient>
    <linearGradient id="linear-gradient1" x1="288" y1="405" x2="289" y2="404" gradientTransform="translate(-6700 16460) scale(25 -40)" gradientUnits="userSpaceOnUse">
      <stop offset="0" stop-color="#f44336"/>
      <stop offset="1" stop-color="#d32f2f"/>
    </linearGradient>
    <clipPath id="clippath">
      <rect class="st15" x="147.1" y="31.5" width="115.6" height="31.5"/>
    </clipPath>
    <clipPath id="clippath-1">
      <rect class="st15" x="147.1" y="31.5" width="115.6" height="31.5"/>
    </clipPath>
  </defs>
  <text class="st20" transform="translate(262.8 56)"><tspan x="0" y="0" xml:space="preserve"> - Side View (Thermal Management)</tspan></text>
  <g>
    <text class="st22" transform="translate(362.8 220)"><tspan x="0" y="0">Side View</tspan></text>
    <rect class="st28" x="250" y="240" width="300" height="100" rx="5" ry="5"/>
    <line class="st16" x1="250" y1="290" x2="550" y2="290"/>
    <text class="st23" transform="translate(490 285)"><tspan x="0" y="0">Main PCB</tspan></text>
    <rect class="st29" x="270" y="260" width="10" height="50"/>
    <line class="st10" x1="270" y1="285" x2="240" y2="285"/>
    <text class="st19" transform="translate(172.2 285)"><tspan x="0" y="0">OLED Display</tspan></text>
    <rect class="st27" x="340" y="255" width="120" height="70" rx="3" ry="3"/>
    <rect class="st3" x="350" y="260" width="100" height="60" rx="2" ry="2"/>
    <line class="st10" x1="340" y1="290" x2="300" y2="290"/>
    <text class="st19" transform="translate(246.6 275)"><tspan x="0" y="0">3.7V Li-Ion</tspan></text>
    <text class="st19" transform="translate(263.3 290)"><tspan x="0" y="0">Battery</tspan></text>
    <text class="st19" transform="translate(245.5 305)"><tspan x="0" y="0">(3000mAh)</tspan></text>
    <rect class="st12" x="420" y="325" width="70" height="5" rx="1" ry="1"/>
    <line class="st11" x1="455" y1="330" x2="455" y2="350"/>
    <text class="st19" transform="translate(421.9 360)"><tspan x="0" y="0">Battery Access</tspan></text>
    <circle class="st26" cx="300" cy="330" r="12"/>
    <circle class="st9" cx="300" cy="330" r="8"/>
    <circle class="st31" cx="300" cy="330" r="4"/>
    <line class="st10" x1="300" y1="342" x2="300" y2="355"/>
    <text class="st19" transform="translate(271.7 365)"><tspan x="0" y="0">HC-SR04 #2</tspan></text>
    <rect class="st35" x="500" y="260" width="25" height="40" rx="2" ry="2"/>
    <text class="st17" transform="translate(505.3 285)"><tspan x="0" y="0">PID</tspan></text>
    <line class="st14" x1="500" y1="280" x2="470" y2="280"/>
    <text class="st19" transform="translate(408.9 265)"><tspan x="0" y="0">Temperature</tspan></text>
    <text class="st19" transform="translate(432.8 280)"><tspan x="0" y="0">Control</tspan></text>
    <text class="st19" transform="translate(431.7 295)"><tspan x="0" y="0">System</tspan></text>
    <circle class="st32" cx="512" cy="315" r="8"/>
    <text class="st25" transform="translate(504.5 280)"><tspan x="0" y="0">LM35</tspan></text>
    <line class="st2" x1="512" y1="323" x2="512" y2="335"/>
    <text class="st19" transform="translate(466.7 345)"><tspan x="0" y="0">Temperature Sensor</tspan></text>
    <rect class="st6" x="530" y="250" width="10" height="80"/>
    <rect class="st0" x="530" y="250" width="10" height="20"/>
    <rect class="st33" x="530" y="310" width="10" height="20"/>
    <text class="st19" transform="translate(545 260)"><tspan x="0" y="0">10°C</tspan></text>
    <text class="st19" transform="translate(545 285)"><tspan x="0" y="0">25°C</tspan></text>
    <text class="st19" transform="translate(545 320)"><tspan x="0" y="0">40°C</tspan></text>
    <text class="st24" transform="translate(545 340)"><tspan x="0" y="0">Temperature</tspan></text>
    <text class="st24" transform="translate(545 350)"><tspan x="0" y="0">Cycle Range</tspan></text>
    <rect class="st4" x="300" y="250" width="25" height="25" rx="2" ry="2"/>
    <line class="st13" x1="303" y1="250" x2="303" y2="275"/>
    <line class="st13" x1="308" y1="250" x2="308" y2="275"/>
    <line class="st13" x1="313" y1="250" x2="313" y2="275"/>
    <line class="st13" x1="318" y1="250" x2="318" y2="275"/>
    <line class="st13" x1="323" y1="250" x2="323" y2="275"/>
    <line class="st13" x1="300" y1="253" x2="325" y2="253"/>
    <line class="st13" x1="300" y1="258" x2="325" y2="258"/>
    <line class="st13" x1="300" y1="263" x2="325" y2="263"/>
    <line class="st13" x1="300" y1="268" x2="325" y2="268"/>
    <line class="st13" x1="300" y1="273" x2="325" y2="273"/>
    <line class="st10" x1="313" y1="250" x2="313" y2="230"/>
    <text class="st19" transform="translate(273.3 225)"><tspan x="0" y="0">Olfactory Sensors</tspan></text>
    <path class="st7" d="M250,245h10"/>
    <path class="st7" d="M540,245h10"/>
    <text class="st19" transform="translate(336.6 235)"><tspan x="0" y="0">IP65 Rubber Gasket Sealing</tspan></text>
    <line class="st8" x1="225" y1="240" x2="225" y2="340"/>
    <line class="st8" x1="222" y1="240" x2="228" y2="240"/>
    <line class="st8" x1="222" y1="340" x2="228" y2="340"/>
    <text class="st21" transform="translate(210 306.7) rotate(-90)"><tspan x="0" y="0">30mm</tspan></text>
    <line class="st8" x1="250" y1="365" x2="550" y2="365"/>
    <line class="st8" x1="250" y1="368" x2="250" y2="362"/>
    <line class="st8" x1="550" y1="368" x2="550" y2="362"/>
    <text class="st21" transform="translate(380 380)"><tspan x="0" y="0">100mm</tspan></text>
  </g>
  <rect class="st5" x="40" y="440" width="320" height="140" rx="5" ry="5"/>
  <text class="st18" transform="translate(96.9 460)"><tspan x="0" y="0">Thermal Management Features</tspan></text>
  <text class="st21" transform="translate(60 485)"><tspan x="0" y="0">• PID-Controlled Temperature Cycling (10°C-40°C)</tspan></text>
  <text class="st21" transform="translate(60 510)"><tspan x="0" y="0">• Ceramic Heating Element with MOSFET Control</tspan></text>
  <text class="st21" transform="translate(60 535)"><tspan x="0" y="0">• LM35 Precision Temperature Sensor (±0.5°C)</tspan></text>
  <text class="st21" transform="translate(60 560)"><tspan x="0" y="0">• Temperature Data Collection at Begin/Middle/End Points</tspan></text>
  <rect class="st5" x="440" y="440" width="320" height="140" rx="5" ry="5"/>
  <text class="st18" transform="translate(529.6 460)"><tspan x="0" y="0">Enclosure Properties</tspan></text>
  <text class="st21" transform="translate(460 485)"><tspan x="0" y="0">• Material: Polycarbonate with 2mm Wall Thickness</tspan></text>
  <text class="st21" transform="translate(460 510)"><tspan x="0" y="0">• IP65 Environmental Protection (Dust/Water Resistant)</tspan></text>
  <text class="st21" transform="translate(460 535)"><tspan x="0" y="0">• Weight: ~200g Total (Including Battery)</tspan></text>
  <text class="st21" transform="translate(460 560)"><tspan x="0" y="0">• Battery Access Door with Rubber Seal</tspan></text>
  <g id="Artwork_894">
    <g class="st34">
      <g class="st30">
        <path class="st1" d="M162,31.5c6.9-.5,13.7,4.3,15.9,10.9,1.3,4.1.9,8.7-1.2,12.4-3,5.6-9.6,9-15.9,8.1-3.8-.4-7.4-2.4-9.8-5.3-2.2-2.4-3.4-5.6-3.8-8.8-.4-4,.8-8.2,3.3-11.4,2.7-3.5,7-5.7,11.4-5.9M160.3,41.1c-2.4.6-4.1,3.1-3.9,5.6.3,3.2,2.8,5.8,5.8,6.8,1.6.6,3.5.5,4.9-.6,1.5-1,2.4-2.9,2.2-4.7,0-2.1-1.3-3.9-2.8-5.3-1.7-1.4-4-2.5-6.2-1.9"/>
        <path class="st1" d="M179.9,32.5c3.2,0,6.4,0,9.5,0,2.1,0,4.3-.1,6.4.3,3.3.6,6.3,2.4,8.4,4.9,2,2.4,3.2,5.5,3.5,8.6,1.9-4.6,3.8-9.2,5.6-13.8,3.7,0,7.3,0,11,0,3,7.3,5.8,14.7,8.9,22,.2-7.3,0-14.6,0-22,6.1,0,12.2,0,18.3,0,2.8-.1,5.5,1.3,7.2,3.5,2.4,3.2,2.6,7.8.8,11.3-1,1.8-2.7,3.2-4.7,3.8,2.6,3.6,5.2,7.2,7.8,10.9-4,0-8,0-11.9,0-2.4-3.4-4.7-6.7-7.2-10,0,3.3,0,6.7,0,10-6,0-12,0-18.1,0-.3-.8-.7-1.6-.9-2.4-3.5,0-7,0-10.5,0,1.2-2.6,2.3-5.3,3.5-7.9,1.3,0,2.6,0,3.9,0-.8-2.2-1.7-4.4-2.6-6.6-1.1,2.3-2,4.7-3,7.1-1.4,3.3-2.8,6.6-4.2,9.9-3.6,0-7.1,0-10.7,0,.4-1,.8-2,1.2-3-2.8,2-6.2,3.1-9.7,3.1-4.2,0-8.4,0-12.7,0,0-9.8,0-19.6,0-29.4M243.6,41.2c0,1.1,0,2.3,0,3.4,1.7,0,3.5,0,5.2,0,.4,0,.8,0,1.1-.1,1.2-.6,1.2-2.8-.1-3.2-2.1,0-4.1,0-6.2,0M189.8,42.2c0,3.4,0,6.7,0,10.1,1.5,0,3,.1,4.5-.1,2.1-.4,3.2-2.6,3.2-4.6,0-1.9-.7-4.2-2.6-5-1.6-.6-3.4-.3-5.1-.4"/>
      </g>
    </g>
  </g>
</svg>