<?xml version="1.0" encoding="UTF-8" ?>
<!DOCTYPE svg PUBLIC "-//W3C//DTD SVG 1.1//EN" "http://www.w3.org/Graphics/SVG/1.1/DTD/svg11.dtd">
<svg width="1312pt" height="736pt" viewBox="0 0 1312 736" version="1.1" xmlns="http://www.w3.org/2000/svg">
<path fill="#000001" opacity="1.00" d=" M 461.24 296.23 C 492.78 294.07 523.59 315.80 533.31 345.66 C 539.41 364.11 537.47 384.99 528.04 401.98 C 514.44 427.34 484.51 442.94 455.92 438.83 C 438.66 436.91 422.48 427.93 411.18 414.82 C 401.30 403.89 395.52 389.58 394.06 374.99 C 392.23 356.65 397.67 337.67 409.22 323.27 C 421.58 307.28 441.09 297.28 461.24 296.23 M 453.47 339.68 C 442.35 342.24 434.71 353.87 435.91 365.07 C 437.30 379.46 448.81 391.53 462.23 395.94 C 469.49 398.48 478.09 398.01 484.45 393.42 C 491.22 388.72 495.34 380.35 494.62 372.10 C 494.37 362.64 488.68 354.26 481.78 348.20 C 474.09 341.69 463.67 336.88 453.47 339.68 Z" />
<path fill="#000001" opacity="1.00" d=" M 542.59 300.82 C 557.06 300.50 571.54 300.74 586.01 300.69 C 595.71 300.79 605.51 300.18 615.07 302.18 C 629.90 305.03 643.73 312.92 653.46 324.49 C 662.76 335.37 668.18 349.27 669.47 363.47 C 678.05 342.56 686.52 321.62 695.14 300.73 C 711.77 300.65 728.39 300.80 745.01 300.71 C 758.69 333.92 771.25 367.59 785.31 400.65 C 786.05 367.38 785.35 334.10 785.75 300.82 C 813.51 300.56 841.27 300.78 869.02 300.61 C 881.64 300.15 893.87 306.72 901.63 316.48 C 912.75 330.95 913.63 352.08 905.05 367.97 C 900.48 376.16 892.63 382.44 883.62 385.05 C 895.37 401.55 907.42 417.85 919.11 434.40 C 901.02 434.47 882.93 434.56 864.84 434.44 C 854.10 419.19 843.56 403.78 832.13 389.03 C 832.11 404.15 832.15 419.27 832.27 434.40 C 804.89 434.47 777.51 434.49 750.13 434.40 C 748.77 430.68 747.14 427.07 745.82 423.35 C 729.85 423.33 713.88 423.42 697.91 423.24 C 703.28 411.30 708.29 399.20 713.66 387.25 C 719.57 387.17 725.48 387.15 731.40 387.17 C 727.76 377.04 723.87 367.02 719.76 357.09 C 714.63 367.50 710.78 378.52 706.12 389.16 C 699.91 404.26 693.28 419.19 687.15 434.32 C 670.90 434.36 654.65 434.53 638.40 434.31 C 640.30 429.71 642.08 425.07 644.04 420.49 C 631.30 429.60 615.66 434.60 600.00 434.41 C 580.81 434.38 561.63 434.53 542.45 434.37 C 542.62 389.85 542.40 345.34 542.59 300.82 M 832.29 340.36 C 832.22 345.48 832.18 350.61 832.36 355.73 C 840.22 355.67 848.09 355.70 855.95 355.73 C 857.64 355.64 859.43 355.80 861.07 355.21 C 866.66 352.57 866.70 342.55 860.53 340.61 C 851.13 340.20 841.70 340.46 832.29 340.36 M 587.66 344.77 C 587.56 360.06 587.55 375.35 587.65 390.64 C 594.43 390.44 601.30 391.19 608.04 390.13 C 617.40 388.12 622.81 378.11 622.66 369.08 C 622.97 360.31 619.60 349.95 610.84 346.39 C 603.41 343.81 595.36 345.21 587.66 344.77 Z" />
</svg>
