<?xml version="1.0" encoding="UTF-8" ?>
<!DOCTYPE svg PUBLIC "-//W3C//DTD SVG 1.1//EN" "http://www.w3.org/Graphics/SVG/1.1/DTD/svg11.dtd">
<svg width="1312pt" height="736pt" viewBox="0 0 1312 736" version="1.1" xmlns="http://www.w3.org/2000/svg">
<path fill="#010101" opacity="1.00" d=" M 574.31 98.42 C 625.53 98.34 676.74 98.27 727.96 98.35 C 750.05 99.99 770.98 112.23 783.67 130.35 C 786.81 135.48 792.29 138.46 795.64 143.45 C 806.69 155.89 812.66 172.43 812.42 189.04 C 812.47 315.36 812.39 441.68 812.41 568.00 C 812.30 588.79 801.93 608.82 786.21 622.16 C 775.77 631.24 762.60 636.92 748.97 638.98 C 738.40 640.85 727.65 640.02 716.98 640.23 C 679.65 640.21 642.32 640.23 604.99 640.19 C 588.45 639.59 571.53 635.10 558.21 624.93 C 555.35 622.90 553.29 619.74 549.89 618.53 C 527.34 609.81 509.53 589.66 503.97 566.09 C 500.93 555.31 501.77 544.03 501.58 532.98 C 501.56 413.98 501.62 294.98 501.55 175.98 C 500.83 158.60 506.63 141.09 517.34 127.41 C 530.75 109.97 552.15 98.45 574.31 98.42 M 563.44 102.63 C 548.77 105.45 534.99 112.87 524.88 123.89 C 511.57 137.61 504.23 156.87 504.79 175.95 C 504.90 184.97 504.58 194.00 505.19 203.01 C 505.33 250.00 505.30 297.00 505.25 343.99 C 504.90 363.99 505.71 384.01 504.94 404.00 C 505.61 416.64 505.09 429.30 505.26 441.95 C 505.49 447.66 504.33 453.35 505.06 459.05 C 504.64 466.70 504.77 474.36 504.74 482.02 C 504.57 487.36 505.56 492.67 504.89 498.00 C 505.26 507.34 505.54 516.73 504.81 526.07 C 504.82 535.75 505.20 545.44 505.45 555.12 C 507.70 578.38 521.97 600.34 542.67 611.35 C 553.72 617.41 566.28 621.17 578.96 620.82 C 627.62 620.77 676.28 620.97 724.93 620.71 C 749.06 619.29 771.85 604.88 783.82 583.94 C 790.51 572.50 793.91 559.20 793.82 545.97 C 793.93 477.32 793.75 408.66 793.81 340.00 C 793.58 330.00 794.45 320.01 793.85 310.02 C 794.57 293.66 793.79 277.30 793.83 260.95 C 793.70 234.64 793.91 208.32 793.85 182.02 C 794.53 173.67 794.17 165.19 792.31 157.01 C 789.18 145.42 783.45 134.48 775.51 125.47 C 761.99 110.61 742.20 101.09 721.94 101.55 C 675.31 101.62 628.67 101.60 582.04 101.63 C 575.83 101.68 569.56 101.39 563.44 102.63 Z" />
<path fill="#838687" opacity="1.00" d=" M 563.44 102.63 C 569.56 101.39 575.83 101.68 582.04 101.63 C 628.67 101.60 675.31 101.62 721.94 101.55 C 742.20 101.09 761.99 110.61 775.51 125.47 C 783.45 134.48 789.18 145.42 792.31 157.01 C 794.17 165.19 794.53 173.67 793.85 182.02 C 793.91 208.32 793.70 234.64 793.83 260.95 C 793.79 277.30 794.57 293.66 793.85 310.02 C 794.45 320.01 793.58 330.00 793.81 340.00 C 793.75 408.66 793.93 477.32 793.82 545.97 C 793.91 559.20 790.51 572.50 783.82 583.94 C 771.85 604.88 749.06 619.29 724.93 620.71 C 676.28 620.97 627.62 620.77 578.96 620.82 C 566.28 621.17 553.72 617.41 542.67 611.35 C 521.97 600.34 507.70 578.38 505.45 555.12 C 505.20 545.44 504.82 535.75 504.81 526.07 C 505.54 516.73 505.26 507.34 504.89 498.00 C 505.56 492.67 504.57 487.36 504.74 482.02 C 504.77 474.36 504.64 466.70 505.06 459.05 C 504.33 453.35 505.49 447.66 505.26 441.95 C 505.09 429.30 505.61 416.64 504.94 404.00 C 505.71 384.01 504.90 363.99 505.25 343.99 C 505.30 297.00 505.33 250.00 505.19 203.01 C 504.58 194.00 504.90 184.97 504.79 175.95 C 504.23 156.87 511.57 137.61 524.88 123.89 C 534.99 112.87 548.77 105.45 563.44 102.63 M 564.44 110.64 C 541.19 115.25 521.76 133.83 515.42 156.57 C 511.77 168.73 513.60 181.53 513.20 194.01 C 512.65 218.35 512.56 242.72 512.96 267.05 C 512.32 272.41 513.71 277.76 513.06 283.12 C 512.52 287.75 513.24 292.41 512.85 297.05 C 512.30 304.02 513.71 310.98 512.95 317.94 C 513.70 356.62 512.99 395.34 512.87 434.00 C 513.65 471.65 513.09 509.35 513.29 547.02 C 512.91 570.28 526.41 593.05 546.79 604.18 C 556.91 609.66 568.44 612.93 580.01 612.61 C 628.01 612.70 676.01 612.65 724.01 612.62 C 739.62 611.83 754.57 604.42 765.63 593.54 C 778.08 581.08 785.74 563.72 785.68 546.02 C 785.63 420.35 785.59 294.66 785.66 168.99 C 784.89 152.97 777.05 137.53 765.11 126.92 C 753.41 116.29 738.01 109.25 722.02 109.49 C 673.34 109.68 624.66 109.61 575.98 109.58 C 572.10 109.52 568.22 109.78 564.44 110.64 Z" />
<path fill="#010101" opacity="1.00" d=" M 564.44 110.64 C 568.22 109.78 572.10 109.52 575.98 109.58 C 624.66 109.61 673.34 109.68 722.02 109.49 C 738.01 109.25 753.41 116.29 765.11 126.92 C 777.05 137.53 784.89 152.97 785.66 168.99 C 785.59 294.66 785.63 420.35 785.68 546.02 C 785.74 563.72 778.08 581.08 765.63 593.54 C 754.57 604.42 739.62 611.83 724.01 612.62 C 676.01 612.65 628.01 612.70 580.01 612.61 C 568.44 612.93 556.91 609.66 546.79 604.18 C 526.41 593.05 512.91 570.28 513.29 547.02 C 513.09 509.35 513.65 471.65 512.87 434.00 C 512.99 395.34 513.70 356.62 512.95 317.94 C 513.71 310.98 512.30 304.02 512.85 297.05 C 513.24 292.41 512.52 287.75 513.06 283.12 C 513.71 277.76 512.32 272.41 512.96 267.05 C 512.56 242.72 512.65 218.35 513.20 194.01 C 513.60 181.53 511.77 168.73 515.42 156.57 C 521.76 133.83 541.19 115.25 564.44 110.64 M 569.18 113.18 C 540.47 116.59 516.84 143.13 516.56 172.01 C 516.66 183.33 516.56 194.66 516.64 205.98 C 516.32 257.98 516.75 309.97 516.62 361.96 C 516.62 420.29 516.68 478.62 516.72 536.95 C 516.77 544.30 516.42 551.71 517.78 558.98 C 519.76 569.94 524.98 580.26 532.41 588.54 C 541.44 598.82 554.14 605.50 567.44 608.31 C 574.51 609.93 581.79 609.20 588.97 609.42 C 633.97 609.58 678.97 609.40 723.97 609.41 C 740.10 608.34 755.62 600.41 766.20 588.23 C 775.64 577.78 781.09 564.01 782.24 550.04 C 782.23 425.69 782.11 301.34 782.22 176.98 C 782.42 169.63 781.96 162.15 779.61 155.13 C 772.69 133.37 752.70 116.53 730.11 113.30 C 724.09 112.48 718.01 112.89 711.96 112.80 C 679.97 112.65 647.97 112.91 615.97 112.79 C 600.38 113.00 584.75 112.33 569.18 113.18 Z" />
<path fill="#85c5ea" opacity="1.00" d=" M 569.18 113.18 C 584.75 112.33 600.38 113.00 615.97 112.79 C 647.97 112.91 679.97 112.65 711.96 112.80 C 718.01 112.89 724.09 112.48 730.11 113.30 C 752.70 116.53 772.69 133.37 779.61 155.13 C 781.96 162.15 782.42 169.63 782.22 176.98 C 782.11 301.34 782.23 425.69 782.24 550.04 C 781.09 564.01 775.64 577.78 766.20 588.23 C 755.62 600.41 740.10 608.34 723.97 609.41 C 678.97 609.40 633.97 609.58 588.97 609.42 C 581.79 609.20 574.51 609.93 567.44 608.31 C 554.14 605.50 541.44 598.82 532.41 588.54 C 524.98 580.26 519.76 569.94 517.78 558.98 C 516.42 551.71 516.77 544.30 516.72 536.95 C 516.68 478.62 516.62 420.29 516.62 361.96 C 516.75 309.97 516.32 257.98 516.64 205.98 C 516.56 194.66 516.66 183.33 516.56 172.01 C 516.84 143.13 540.47 116.59 569.18 113.18 M 565.59 126.81 C 548.86 130.59 534.68 144.84 532.17 161.98 C 528.57 181.08 543.11 202.75 562.98 204.31 C 577.99 204.54 593.02 204.46 608.04 204.47 C 616.22 204.57 624.93 201.63 629.96 194.88 C 633.24 190.75 633.31 184.92 637.04 181.08 C 642.80 174.51 654.23 174.39 660.06 180.95 C 664.05 184.63 663.84 190.67 667.29 194.72 C 672.21 200.87 680.06 204.76 687.98 204.52 C 702.93 204.45 717.88 204.58 732.83 204.44 C 750.44 203.93 764.59 187.94 766.56 171.08 C 768.07 158.59 762.21 146.12 753.04 137.85 C 745.38 130.26 734.81 125.56 723.97 125.64 C 676.32 125.79 628.67 125.69 581.01 125.70 C 575.85 125.65 570.64 125.59 565.59 126.81 M 555.48 216.72 C 540.21 219.56 527.85 233.76 527.61 249.37 C 527.38 268.92 527.57 288.47 527.48 308.02 C 527.63 313.84 526.97 319.81 528.77 325.45 C 532.23 336.61 541.65 345.74 552.97 348.72 C 558.50 350.44 564.34 349.71 570.04 349.85 C 625.71 349.83 681.39 349.90 737.06 349.80 C 754.75 350.04 770.62 334.51 771.50 317.00 C 771.40 294.33 771.40 271.66 771.39 248.99 C 770.47 232.55 756.49 218.03 740.12 216.38 C 728.11 215.48 716.05 215.96 704.02 215.84 C 689.02 215.73 674.02 215.75 659.03 216.16 C 637.37 216.31 615.72 215.64 594.06 215.85 C 581.20 216.09 568.28 215.23 555.48 216.72 M 545.36 409.50 C 541.45 410.81 538.52 414.80 538.76 418.98 C 538.79 425.31 538.87 431.64 538.81 437.97 C 538.50 442.53 541.63 446.95 545.88 448.46 C 549.16 449.37 552.60 449.18 555.97 449.23 C 563.01 449.15 570.06 449.44 577.11 449.10 C 582.77 449.04 587.86 443.68 587.35 437.98 C 587.26 431.31 587.53 424.64 587.22 417.99 C 587.14 413.85 583.60 410.62 579.87 409.48 C 574.63 408.41 569.25 409.04 563.95 408.85 C 557.76 409.08 551.45 408.10 545.36 409.50 M 604.27 409.18 C 599.65 409.79 595.94 414.22 596.26 418.90 C 596.28 425.91 596.23 432.94 596.47 439.96 C 596.55 445.29 601.87 449.23 606.95 449.16 C 614.64 449.26 622.34 449.19 630.03 449.28 C 633.46 449.16 637.36 449.46 640.21 447.18 C 642.65 445.23 644.71 442.37 644.57 439.11 C 644.64 431.88 644.72 424.64 644.42 417.42 C 644.18 412.28 638.91 408.74 634.04 409.06 C 624.12 408.87 614.16 408.55 604.27 409.18 M 660.45 409.65 C 657.12 411.12 653.86 414.11 653.76 417.99 C 653.50 424.67 653.68 431.35 653.68 438.03 C 653.59 441.03 654.51 444.15 656.85 446.16 C 659.44 448.95 663.46 449.24 667.03 449.24 C 675.03 449.18 683.03 449.40 691.03 449.28 C 695.51 449.34 699.89 446.38 701.37 442.13 C 701.89 440.13 701.76 438.04 701.81 436.00 C 701.74 430.32 701.87 424.64 701.77 418.96 C 701.84 413.43 696.42 408.81 691.06 408.85 C 684.05 408.78 677.04 408.93 670.03 408.81 C 666.83 408.81 663.52 408.60 660.45 409.65 M 719.32 409.37 C 715.18 409.95 711.42 413.58 711.41 417.88 C 711.23 425.57 711.37 433.27 711.53 440.96 C 711.59 445.77 716.38 449.32 720.97 449.17 C 730.31 449.38 739.67 449.32 749.01 449.23 C 754.11 449.51 759.83 445.45 759.67 440.01 C 759.70 432.65 759.68 425.28 759.65 417.91 C 759.67 412.59 754.12 408.63 749.07 409.15 C 739.15 409.30 729.22 408.84 719.32 409.37 M 544.49 457.63 C 541.32 459.13 538.68 462.32 538.71 465.95 C 538.63 472.63 538.74 479.32 538.72 486.00 C 538.46 489.93 540.81 493.82 544.38 495.47 C 547.41 496.85 550.82 496.62 554.06 496.68 C 561.68 496.62 569.30 496.81 576.92 496.59 C 582.07 496.63 587.04 492.27 587.22 487.04 C 587.55 480.36 587.50 473.67 587.39 466.99 C 587.54 461.44 582.48 456.62 577.00 456.76 C 569.33 456.59 561.66 456.83 553.99 456.66 C 550.81 456.67 547.49 456.37 544.49 457.63 M 602.44 457.57 C 598.65 459.11 595.78 462.86 595.93 467.04 C 595.80 473.69 595.71 480.37 596.16 487.01 C 595.96 492.20 600.89 496.49 605.90 496.49 C 615.58 496.67 625.26 496.82 634.94 496.63 C 640.01 496.65 644.77 492.10 644.73 487.00 C 644.83 481.33 644.76 475.67 644.78 470.01 C 644.66 467.20 644.94 464.10 643.26 461.67 C 641.29 458.55 637.67 456.73 634.01 456.78 C 626.34 456.57 618.67 456.72 611.00 456.66 C 608.13 456.70 605.15 456.50 602.44 457.57 M 660.32 457.50 C 656.51 459.01 653.43 462.78 653.65 467.04 C 653.49 473.68 653.52 480.34 653.70 486.99 C 653.82 492.32 658.90 496.64 664.10 496.65 C 672.71 496.76 681.34 496.79 689.96 496.78 C 693.36 496.86 697.06 496.15 699.35 493.41 C 701.81 490.94 702.24 487.32 702.04 484.01 C 701.70 477.99 701.99 471.95 701.81 465.93 C 702.01 460.76 696.86 457.04 692.09 456.82 C 685.06 456.57 678.02 456.86 671.00 456.75 C 667.43 456.80 663.78 456.50 660.32 457.50 M 717.31 457.47 C 713.93 458.85 711.06 462.14 711.22 465.95 C 711.10 472.65 711.19 479.36 711.20 486.07 C 710.77 491.43 715.70 496.33 720.98 496.35 C 730.64 496.53 740.31 496.48 749.98 496.44 C 753.95 496.57 757.33 493.57 759.27 490.35 C 760.68 486.05 760.09 481.45 759.89 477.02 C 759.60 472.69 760.03 468.34 759.69 464.02 C 758.54 459.82 754.36 456.59 749.96 456.78 C 741.65 456.83 733.34 456.83 725.03 456.71 C 722.44 456.72 719.76 456.51 717.31 457.47 M 546.23 504.24 C 542.86 504.89 540.01 507.63 539.11 510.92 C 538.30 518.56 538.98 526.32 538.87 534.00 C 539.02 539.17 543.69 544.00 548.97 543.80 C 558.32 543.89 567.68 543.97 577.04 543.79 C 582.33 544.01 587.44 539.33 587.38 533.98 C 587.46 527.31 587.46 520.63 587.39 513.95 C 587.76 508.83 583.10 504.30 578.12 504.19 C 571.44 503.56 564.73 503.92 558.05 503.80 C 554.11 503.86 550.12 503.46 546.23 504.24 M 604.25 504.20 C 600.14 504.96 596.14 508.52 596.20 512.94 C 596.05 518.95 596.29 524.96 596.28 530.98 C 596.42 533.75 596.09 536.82 597.78 539.21 C 599.53 541.93 602.62 543.88 605.92 543.81 C 615.29 543.85 624.67 543.92 634.04 543.83 C 639.47 544.29 644.73 539.36 644.58 533.92 C 644.66 526.72 644.74 519.52 644.51 512.34 C 644.35 507.59 639.63 503.94 635.04 504.21 C 624.78 504.14 614.48 503.36 604.25 504.20 M 662.15 504.27 C 657.44 504.75 653.37 509.20 653.61 514.00 C 653.57 520.67 653.57 527.35 653.72 534.02 C 653.68 539.34 658.64 544.07 663.96 543.77 C 672.99 543.88 682.04 543.88 691.08 543.86 C 696.45 544.27 701.92 539.57 701.80 534.09 C 701.92 527.05 701.82 520.00 701.78 512.97 C 701.92 507.96 696.88 503.92 692.07 504.17 C 682.10 504.18 672.11 503.95 662.15 504.27 M 717.47 504.64 C 713.73 506.08 711.01 509.88 711.28 513.95 C 711.26 536.64 711.15 559.34 711.26 582.03 C 710.92 586.20 714.31 589.59 717.91 591.05 C 722.15 592.27 726.66 591.80 731.02 591.77 C 746.82 591.36 759.92 576.53 760.01 561.01 C 760.18 545.33 760.11 529.64 760.19 513.95 C 760.54 508.52 755.47 503.60 750.10 503.79 C 742.72 503.72 735.34 503.86 727.97 503.77 C 724.46 503.81 720.84 503.50 717.47 504.64 M 546.38 551.62 C 541.50 552.82 537.78 557.86 538.52 562.93 C 539.01 567.81 539.44 572.88 541.67 577.33 C 546.29 586.12 556.00 592.14 566.02 591.72 C 572.13 591.32 579.47 593.19 584.37 588.45 C 587.91 585.31 587.53 580.26 587.53 575.97 C 587.36 570.64 587.75 565.30 587.29 559.99 C 586.70 554.60 581.14 551.06 575.98 551.44 C 566.12 551.57 556.22 550.98 546.38 551.62 M 604.44 551.64 C 601.07 552.27 598.19 554.77 596.75 557.84 C 595.69 561.44 596.23 565.27 596.13 568.98 C 596.31 574.21 595.84 579.49 596.55 584.70 C 597.98 588.92 602.48 591.76 606.91 591.56 C 615.95 591.56 624.98 591.74 634.02 591.64 C 639.31 591.91 644.72 587.48 644.69 582.03 C 644.83 574.97 644.77 567.89 644.52 560.83 C 644.49 555.80 639.88 551.44 634.89 551.51 C 624.75 551.44 614.56 551.08 604.44 551.64 M 662.37 551.46 C 657.33 552.03 653.28 556.98 653.57 562.04 C 653.56 568.72 653.51 575.41 653.73 582.10 C 653.74 587.14 658.29 591.54 663.30 591.56 C 671.19 591.79 679.09 591.59 686.99 591.70 C 690.36 591.62 694.06 591.94 697.04 590.04 C 699.44 588.45 701.64 585.99 701.68 582.96 C 701.96 575.62 701.75 568.26 701.84 560.91 C 702.02 555.31 696.33 551.11 691.04 551.38 C 681.49 551.43 671.92 551.20 662.37 551.46 Z" />
<path fill="#010101" opacity="1.00" d=" M 565.59 126.81 C 570.64 125.59 575.85 125.65 581.01 125.70 C 628.67 125.69 676.32 125.79 723.97 125.64 C 734.81 125.56 745.38 130.26 753.04 137.85 C 762.21 146.12 768.07 158.59 766.56 171.08 C 764.59 187.94 750.44 203.93 732.83 204.44 C 717.88 204.58 702.93 204.45 687.98 204.52 C 680.06 204.76 672.21 200.87 667.29 194.72 C 663.84 190.67 664.05 184.63 660.06 180.95 C 654.23 174.39 642.80 174.51 637.04 181.08 C 633.31 184.92 633.24 190.75 629.96 194.88 C 624.93 201.63 616.22 204.57 608.04 204.47 C 593.02 204.46 577.99 204.54 562.98 204.31 C 543.11 202.75 528.57 181.08 532.17 161.98 C 534.68 144.84 548.86 130.59 565.59 126.81 M 590.24 143.25 C 581.42 143.46 572.59 146.09 565.42 151.32 C 553.43 159.60 546.12 174.48 547.84 189.07 C 548.23 191.35 548.41 194.02 550.33 195.63 C 554.05 198.91 558.99 200.79 563.97 200.65 C 579.32 200.80 594.67 200.71 610.02 200.78 C 617.09 200.75 624.51 197.36 628.16 191.10 C 630.08 187.34 630.94 183.02 633.64 179.67 C 637.32 175.12 643.16 172.25 649.06 172.52 C 655.78 172.51 662.32 176.46 665.47 182.40 C 667.46 185.90 668.02 190.16 670.79 193.23 C 675.02 198.08 681.51 201.07 687.98 200.77 C 702.32 200.72 716.66 200.80 731.00 200.81 C 745.53 201.39 758.17 189.56 761.89 176.08 C 764.69 167.09 762.96 157.06 758.00 149.14 C 756.26 146.22 754.15 142.44 750.11 143.21 C 696.82 143.13 643.53 143.17 590.24 143.25 Z" />
<path fill="#010101" opacity="1.00" d=" M 555.48 216.72 C 568.28 215.23 581.20 216.09 594.06 215.85 C 615.72 215.64 637.37 216.31 659.03 216.16 C 674.02 215.75 689.02 215.73 704.02 215.84 C 716.05 215.96 728.11 215.48 740.12 216.38 C 756.49 218.03 770.47 232.55 771.39 248.99 C 771.40 271.66 771.40 294.33 771.50 317.00 C 770.62 334.51 754.75 350.04 737.06 349.80 C 681.39 349.90 625.71 349.83 570.04 349.85 C 564.34 349.71 558.50 350.44 552.97 348.72 C 541.65 345.74 532.23 336.61 528.77 325.45 C 526.97 319.81 527.63 313.84 527.48 308.02 C 527.57 288.47 527.38 268.92 527.61 249.37 C 527.85 233.76 540.21 219.56 555.48 216.72 M 561.38 219.50 C 546.09 219.72 532.17 232.71 531.27 248.02 C 530.98 267.99 531.42 287.97 530.87 307.93 C 530.80 312.62 530.93 317.33 531.70 321.96 C 533.79 333.21 543.11 342.52 554.10 345.32 C 560.25 347.11 566.71 346.31 573.02 346.47 C 627.68 346.46 682.34 346.50 737.00 346.46 C 753.34 346.35 768.50 331.58 767.77 315.02 C 767.65 293.55 767.77 272.07 767.63 250.60 C 767.96 237.37 758.27 225.10 745.83 221.21 C 739.14 218.73 731.93 219.60 724.97 219.46 C 670.44 219.45 615.91 219.28 561.38 219.50 Z" />
<path fill="#86c6ea" opacity="1.00" d=" M 561.38 219.50 C 615.91 219.28 670.44 219.45 724.97 219.46 C 731.93 219.60 739.14 218.73 745.83 221.21 C 758.27 225.10 767.96 237.37 767.63 250.60 C 767.77 272.07 767.65 293.55 767.77 315.02 C 768.50 331.58 753.34 346.35 737.00 346.46 C 682.34 346.50 627.68 346.46 573.02 346.47 C 566.71 346.31 560.25 347.11 554.10 345.32 C 543.11 342.52 533.79 333.21 531.70 321.96 C 530.93 317.33 530.80 312.62 530.87 307.93 C 531.42 287.97 530.98 267.99 531.27 248.02 C 532.17 232.71 546.09 219.72 561.38 219.50 M 560.27 232.34 C 551.73 234.10 543.77 241.87 544.32 251.01 C 544.37 273.36 544.28 295.71 544.41 318.05 C 544.87 325.18 550.59 331.19 557.15 333.46 C 561.59 335.16 566.39 334.71 571.04 334.79 C 625.72 334.63 680.40 334.85 735.08 334.73 C 744.64 334.39 754.41 326.11 753.77 316.06 C 753.85 294.02 753.73 271.98 753.88 249.94 C 754.33 239.96 744.63 231.71 735.01 231.79 C 684.00 231.91 632.99 231.75 581.98 231.93 C 574.75 232.67 567.45 231.27 560.27 232.34 Z" />
<path fill="#010101" opacity="1.00" d=" M 560.27 232.34 C 567.45 231.27 574.75 232.67 581.98 231.93 C 632.99 231.75 684.00 231.91 735.01 231.79 C 744.63 231.71 754.33 239.96 753.88 249.94 C 753.73 271.98 753.85 294.02 753.77 316.06 C 754.41 326.11 744.64 334.39 735.08 334.73 C 680.40 334.85 625.72 334.63 571.04 334.79 C 566.39 334.71 561.59 335.16 557.15 333.46 C 550.59 331.19 544.87 325.18 544.41 318.05 C 544.28 295.71 544.37 273.36 544.32 251.01 C 543.77 241.87 551.73 234.10 560.27 232.34 M 592.39 252.58 C 580.25 257.38 580.60 278.47 593.10 282.65 C 598.66 284.31 605.43 283.91 609.99 279.98 C 615.39 274.73 615.67 265.81 612.81 259.22 C 609.35 251.71 599.56 249.83 592.39 252.58 M 621.38 251.89 C 621.21 262.18 621.25 272.48 621.31 282.77 C 627.36 283.23 633.55 283.43 639.53 282.28 C 647.92 279.24 649.94 268.81 647.66 261.08 C 646.54 256.62 642.58 253.19 638.10 252.37 C 632.58 251.43 626.95 251.91 621.38 251.89 M 651.20 282.65 C 653.22 282.89 655.25 283.09 657.29 283.26 C 658.23 281.11 659.05 278.90 659.84 276.69 C 664.04 276.58 668.25 276.53 672.46 276.53 C 673.19 278.43 673.77 280.42 674.84 282.17 C 676.32 284.21 679.16 282.60 681.22 282.62 C 678.17 272.32 674.21 262.29 670.45 252.23 C 667.93 251.95 665.40 251.81 662.88 251.78 C 658.46 261.86 654.85 272.27 651.20 282.65 M 687.19 252.22 C 686.47 262.53 686.86 272.88 686.86 283.21 C 689.06 283.22 691.27 283.19 693.49 283.12 C 693.41 279.05 693.38 274.97 693.57 270.90 C 695.40 270.90 697.24 270.91 699.09 270.92 C 701.60 274.77 703.65 278.94 706.57 282.51 C 708.52 283.60 710.89 283.02 713.03 283.17 C 712.32 278.13 707.79 274.91 705.79 270.41 C 709.29 269.04 712.64 266.12 712.73 262.10 C 713.48 258.23 711.65 253.70 707.56 252.68 C 700.85 251.42 693.97 252.00 687.19 252.22 M 586.98 297.61 C 586.88 301.15 586.35 304.82 587.27 308.29 C 587.66 308.50 588.43 308.92 588.81 309.14 C 588.90 306.07 589.01 303.00 588.77 299.95 C 588.78 298.76 588.18 297.98 586.98 297.61 M 609.15 297.68 C 608.88 301.33 608.88 304.99 609.01 308.64 C 609.39 308.38 610.15 307.86 610.53 307.60 C 610.64 304.46 612.19 299.81 609.15 297.68 M 633.27 298.23 C 633.32 301.59 633.01 304.97 633.40 308.32 C 633.77 308.56 634.51 309.05 634.89 309.29 C 635.11 305.59 635.06 301.88 634.98 298.18 C 634.55 298.19 633.70 298.22 633.27 298.23 M 657.03 298.21 C 657.36 301.82 655.80 306.13 658.26 309.20 C 659.05 305.56 659.08 301.81 658.98 298.10 C 658.49 298.13 657.51 298.18 657.03 298.21 M 685.23 299.03 C 685.33 302.12 683.57 306.79 686.82 308.68 C 687.01 305.72 687.22 302.75 686.99 299.80 C 687.56 298.56 685.03 297.46 685.23 299.03 M 708.34 297.82 C 707.99 301.59 707.96 305.38 708.13 309.16 C 708.55 308.98 709.38 308.61 709.80 308.42 C 710.21 305.23 710.38 301.87 709.67 298.72 C 709.34 298.50 708.68 298.05 708.34 297.82 M 592.00 306.59 C 592.56 307.19 593.68 308.37 594.24 308.96 C 594.85 312.44 592.66 317.41 596.00 319.76 C 596.26 315.94 596.25 312.11 596.26 308.28 C 598.65 308.25 601.03 308.22 603.43 308.13 C 603.19 307.66 602.71 306.71 602.47 306.24 C 599.01 305.55 595.42 305.82 592.00 306.59 M 617.52 305.87 C 618.17 309.83 623.10 307.57 625.88 308.12 C 625.92 311.99 625.86 315.86 626.05 319.74 C 626.41 319.42 627.13 318.79 627.49 318.47 C 628.13 314.34 627.67 310.11 627.89 305.94 C 624.43 305.85 620.97 305.79 617.52 305.87 M 641.28 305.91 C 641.36 309.47 645.38 307.99 647.73 308.43 C 647.83 312.21 647.83 316.00 648.01 319.78 C 648.39 319.49 649.14 318.91 649.52 318.62 C 649.92 314.39 649.53 310.09 650.27 305.88 C 647.27 305.87 644.27 305.87 641.28 305.91 M 664.54 308.29 C 666.59 308.25 668.64 308.22 670.70 308.20 C 670.75 312.02 670.77 315.84 670.79 319.67 L 672.48 319.64 C 672.50 315.81 672.52 311.97 672.53 308.14 C 674.52 308.19 676.51 308.24 678.51 308.29 C 678.49 307.76 678.45 306.70 678.42 306.17 C 673.78 306.20 669.15 305.99 664.53 305.75 C 664.52 306.59 664.52 307.44 664.54 308.29 M 693.41 305.87 C 693.45 306.48 693.54 307.70 693.58 308.31 C 696.37 308.33 699.16 308.35 701.95 308.36 C 702.35 312.28 700.68 316.86 703.23 320.23 C 704.07 315.58 703.91 310.84 704.15 306.14 C 700.57 305.95 696.98 305.87 693.41 305.87 Z" />
<path fill="#fcfcfd" opacity="1.00" d=" M 592.39 252.58 C 599.56 249.83 609.35 251.71 612.81 259.22 C 615.67 265.81 615.39 274.73 609.99 279.98 C 605.43 283.91 598.66 284.31 593.10 282.65 C 580.60 278.47 580.25 257.38 592.39 252.58 M 595.45 257.67 C 590.06 260.30 589.23 267.67 591.20 272.75 C 593.18 278.77 602.36 280.21 605.97 274.95 C 608.38 271.17 608.64 266.14 607.07 261.99 C 605.44 257.50 599.62 255.46 595.45 257.67 Z" />
<path fill="#fcfdfe" opacity="1.00" d=" M 621.38 251.89 C 626.95 251.91 632.58 251.43 638.10 252.37 C 642.58 253.19 646.54 256.62 647.66 261.08 C 649.94 268.81 647.92 279.24 639.53 282.28 C 633.55 283.43 627.36 283.23 621.31 282.77 C 621.25 272.48 621.21 262.18 621.38 251.89 M 627.85 257.40 C 627.98 264.14 627.57 270.91 628.17 277.64 C 632.11 277.69 637.22 278.57 639.80 274.75 C 642.20 270.67 642.24 265.18 640.21 260.95 C 637.77 256.56 632.12 256.93 627.85 257.40 Z" />
<path fill="#f9fafb" opacity="1.00" d=" M 651.20 282.65 C 654.85 272.27 658.46 261.86 662.88 251.78 C 665.40 251.81 667.93 251.95 670.45 252.23 C 674.21 262.29 678.17 272.32 681.22 282.62 C 679.16 282.60 676.32 284.21 674.84 282.17 C 673.77 280.42 673.19 278.43 672.46 276.53 C 668.25 276.53 664.04 276.58 659.84 276.69 C 659.05 278.90 658.23 281.11 657.29 283.26 C 655.25 283.09 653.22 282.89 651.20 282.65 M 661.67 271.19 C 664.77 271.28 667.87 271.34 670.98 271.35 C 669.58 266.92 668.11 262.50 666.16 258.28 C 664.48 262.52 662.99 266.83 661.67 271.19 Z" />
<path fill="#fcfcfd" opacity="1.00" d=" M 687.19 252.22 C 693.97 252.00 700.85 251.42 707.56 252.68 C 711.65 253.70 713.48 258.23 712.73 262.10 C 712.64 266.12 709.29 269.04 705.79 270.41 C 707.79 274.91 712.32 278.13 713.03 283.17 C 710.89 283.02 708.52 283.60 706.57 282.51 C 703.65 278.94 701.60 274.77 699.09 270.92 C 697.24 270.91 695.40 270.90 693.57 270.90 C 693.38 274.97 693.41 279.05 693.49 283.12 C 691.27 283.19 689.06 283.22 686.86 283.21 C 686.86 272.88 686.47 262.53 687.19 252.22 M 693.47 257.15 C 693.45 260.04 693.44 262.92 693.50 265.81 C 696.83 265.64 700.25 265.99 703.54 265.28 C 706.79 264.14 707.21 259.36 704.28 257.62 C 700.78 256.63 697.06 257.32 693.47 257.15 Z" />
<path fill="#010102" opacity="1.00" d=" M 595.45 257.67 C 599.62 255.46 605.44 257.50 607.07 261.99 C 608.64 266.14 608.38 271.17 605.97 274.95 C 602.36 280.21 593.18 278.77 591.20 272.75 C 589.23 267.67 590.06 260.30 595.45 257.67 Z" />
<path fill="#010102" opacity="1.00" d=" M 627.85 257.40 C 632.12 256.93 637.77 256.56 640.21 260.95 C 642.24 265.18 642.20 270.67 639.80 274.75 C 637.22 278.57 632.11 277.69 628.17 277.64 C 627.57 270.91 627.98 264.14 627.85 257.40 Z" />
<path fill="#020304" opacity="1.00" d=" M 693.47 257.15 C 697.06 257.32 700.78 256.63 704.28 257.62 C 707.21 259.36 706.79 264.14 703.54 265.28 C 700.25 265.99 696.83 265.64 693.50 265.81 C 693.44 262.92 693.45 260.04 693.47 257.15 Z" />
<path fill="#050506" opacity="1.00" d=" M 661.67 271.19 C 662.99 266.83 664.48 262.52 666.16 258.28 C 668.11 262.50 669.58 266.92 670.98 271.35 C 667.87 271.34 664.77 271.28 661.67 271.19 Z" />
<path fill="#18663f" opacity="1.00" d=" M 586.98 297.61 C 588.18 297.98 588.78 298.76 588.77 299.95 C 589.01 303.00 588.90 306.07 588.81 309.14 C 588.43 308.92 587.66 308.50 587.27 308.29 C 586.35 304.82 586.88 301.15 586.98 297.61 Z" />
<path fill="#1d6a3e" opacity="1.00" d=" M 609.15 297.68 C 612.19 299.81 610.64 304.46 610.53 307.60 C 610.15 307.86 609.39 308.38 609.01 308.64 C 608.88 304.99 608.88 301.33 609.15 297.68 Z" />
<path fill="#1b6539" opacity="1.00" d=" M 633.27 298.23 C 633.70 298.22 634.55 298.19 634.98 298.18 C 635.06 301.88 635.11 305.59 634.89 309.29 C 634.51 309.05 633.77 308.56 633.40 308.32 C 633.01 304.97 633.32 301.59 633.27 298.23 Z" />
<path fill="#1a6f3f" opacity="1.00" d=" M 657.03 298.21 C 657.51 298.18 658.49 298.13 658.98 298.10 C 659.08 301.81 659.05 305.56 658.26 309.20 C 655.80 306.13 657.36 301.82 657.03 298.21 Z" />
<path fill="#1a7044" opacity="1.00" d=" M 685.23 299.03 C 685.03 297.46 687.56 298.56 686.99 299.80 C 687.22 302.75 687.01 305.72 686.82 308.68 C 683.57 306.79 685.33 302.12 685.23 299.03 Z" />
<path fill="#216a40" opacity="1.00" d=" M 708.34 297.82 C 708.68 298.05 709.34 298.50 709.67 298.72 C 710.38 301.87 710.21 305.23 709.80 308.42 C 709.38 308.61 708.55 308.98 708.13 309.16 C 707.96 305.38 707.99 301.59 708.34 297.82 Z" />
<path fill="#0b773b" opacity="1.00" d=" M 592.00 306.59 C 595.42 305.82 599.01 305.55 602.47 306.24 C 602.71 306.71 603.19 307.66 603.43 308.13 C 601.03 308.22 598.65 308.25 596.26 308.28 C 596.25 312.11 596.26 315.94 596.00 319.76 C 592.66 317.41 594.85 312.44 594.24 308.96 C 593.68 308.37 592.56 307.19 592.00 306.59 Z" />
<path fill="#0c753e" opacity="1.00" d=" M 617.52 305.87 C 620.97 305.79 624.43 305.85 627.89 305.94 C 627.67 310.11 628.13 314.34 627.49 318.47 C 627.13 318.79 626.41 319.42 626.05 319.74 C 625.86 315.86 625.92 311.99 625.88 308.12 C 623.10 307.57 618.17 309.83 617.52 305.87 Z" />
<path fill="#0d7a41" opacity="1.00" d=" M 641.28 305.91 C 644.27 305.87 647.27 305.87 650.27 305.88 C 649.53 310.09 649.92 314.39 649.52 318.62 C 649.14 318.91 648.39 319.49 648.01 319.78 C 647.83 316.00 647.83 312.21 647.73 308.43 C 645.38 307.99 641.36 309.47 641.28 305.91 Z" />
<path fill="#0c8246" opacity="1.00" d=" M 664.54 308.29 C 664.52 307.44 664.52 306.59 664.53 305.75 C 669.15 305.99 673.78 306.20 678.42 306.17 C 678.45 306.70 678.49 307.76 678.51 308.29 C 676.51 308.24 674.52 308.19 672.53 308.14 C 672.52 311.97 672.50 315.81 672.48 319.64 L 670.79 319.67 C 670.77 315.84 670.75 312.02 670.70 308.20 C 668.64 308.22 666.59 308.25 664.54 308.29 Z" />
<path fill="#137a40" opacity="1.00" d=" M 693.41 305.87 C 696.98 305.87 700.57 305.95 704.15 306.14 C 703.91 310.84 704.07 315.58 703.23 320.23 C 700.68 316.86 702.35 312.28 701.95 308.36 C 699.16 308.35 696.37 308.33 693.58 308.31 C 693.54 307.70 693.45 306.48 693.41 305.87 Z" />
<path fill="#060707" opacity="1.00" d=" M 545.36 409.50 C 551.45 408.10 557.76 409.08 563.95 408.85 C 569.25 409.04 574.63 408.41 579.87 409.48 C 583.60 410.62 587.14 413.85 587.22 417.99 C 587.53 424.64 587.26 431.31 587.35 437.98 C 587.86 443.68 582.77 449.04 577.11 449.10 C 570.06 449.44 563.01 449.15 555.97 449.23 C 552.60 449.18 549.16 449.37 545.88 448.46 C 541.63 446.95 538.50 442.53 538.81 437.97 C 538.87 431.64 538.79 425.31 538.76 418.98 C 538.52 414.80 541.45 410.81 545.36 409.50 M 547.39 412.60 C 544.24 413.34 541.94 416.70 542.24 419.92 C 542.57 426.64 542.07 433.40 542.73 440.09 C 543.28 444.01 547.40 445.85 551.00 445.40 C 559.66 445.29 568.33 445.65 576.99 445.40 C 580.53 445.40 583.65 442.27 583.73 438.76 C 583.99 432.49 583.82 426.20 583.90 419.92 C 584.37 415.68 580.34 411.74 576.11 412.41 C 566.53 412.74 556.94 412.10 547.39 412.60 Z" />
<path fill="#070707" opacity="1.00" d=" M 604.27 409.18 C 614.16 408.55 624.12 408.87 634.04 409.06 C 638.91 408.74 644.18 412.28 644.42 417.42 C 644.72 424.64 644.64 431.88 644.57 439.11 C 644.71 442.37 642.65 445.23 640.21 447.18 C 637.36 449.46 633.46 449.16 630.03 449.28 C 622.34 449.19 614.64 449.26 606.95 449.16 C 601.87 449.23 596.55 445.29 596.47 439.96 C 596.23 432.94 596.28 425.91 596.26 418.90 C 595.94 414.22 599.65 409.79 604.27 409.18 M 603.32 413.20 C 600.99 414.62 599.50 417.27 599.66 420.02 C 599.70 426.03 599.74 432.04 599.87 438.05 C 599.72 441.52 602.22 445.35 605.98 445.31 C 613.65 445.48 621.33 445.18 629.00 445.47 C 632.44 445.38 636.68 446.19 639.21 443.22 C 641.49 441.10 641.15 437.77 641.21 434.95 C 641.08 429.60 641.36 424.25 641.06 418.91 C 641.03 415.68 638.24 412.67 634.97 412.65 C 626.32 412.36 617.65 412.66 608.99 412.49 C 607.11 412.61 605.03 412.27 603.32 413.20 Z" />
<path fill="#080809" opacity="1.00" d=" M 660.45 409.65 C 663.52 408.60 666.83 408.81 670.03 408.81 C 677.04 408.93 684.05 408.78 691.06 408.85 C 696.42 408.81 701.84 413.43 701.77 418.96 C 701.87 424.64 701.74 430.32 701.81 436.00 C 701.76 438.04 701.89 440.13 701.37 442.13 C 699.89 446.38 695.51 449.34 691.03 449.28 C 683.03 449.40 675.03 449.18 667.03 449.24 C 663.46 449.24 659.44 448.95 656.85 446.16 C 654.51 444.15 653.59 441.03 653.68 438.03 C 653.68 431.35 653.50 424.67 653.76 417.99 C 653.86 414.11 657.12 411.12 660.45 409.65 M 661.32 413.26 C 656.93 415.03 656.93 420.01 657.23 423.99 C 657.52 429.50 656.83 435.07 657.54 440.55 C 658.71 444.52 663.20 445.93 666.95 445.51 C 675.30 445.17 683.66 445.74 692.00 445.40 C 695.36 445.38 698.36 442.41 698.24 439.03 C 698.36 432.67 698.19 426.31 698.26 419.96 C 698.46 416.07 694.89 412.46 691.01 412.58 C 683.34 412.44 675.68 412.61 668.01 412.51 C 665.78 412.60 663.41 412.35 661.32 413.26 Z" />
<path fill="#070606" opacity="1.00" d=" M 719.32 409.37 C 729.22 408.84 739.15 409.30 749.07 409.15 C 754.12 408.63 759.67 412.59 759.65 417.91 C 759.68 425.28 759.70 432.65 759.67 440.01 C 759.83 445.45 754.11 449.51 749.01 449.23 C 739.67 449.32 730.31 449.38 720.97 449.17 C 716.38 449.32 711.59 445.77 711.53 440.96 C 711.37 433.27 711.23 425.57 711.41 417.88 C 711.42 413.58 715.18 409.95 719.32 409.37 M 718.32 413.42 C 716.27 414.47 714.82 416.60 714.88 418.94 C 714.63 424.28 714.94 429.64 714.83 435.00 C 714.91 437.50 714.61 440.15 715.58 442.53 C 717.02 445.16 720.32 445.33 722.98 445.32 C 731.98 445.33 740.99 445.48 750.00 445.39 C 753.42 445.59 756.48 442.36 756.26 438.97 C 756.23 432.27 756.28 425.56 756.17 418.86 C 756.26 415.13 752.57 412.37 749.04 412.55 C 741.34 412.49 733.64 412.82 725.95 412.61 C 723.41 412.70 720.67 412.26 718.32 413.42 Z" />
<path fill="#818080" opacity="1.00" d=" M 547.39 412.60 C 556.94 412.10 566.53 412.74 576.11 412.41 C 580.34 411.74 584.37 415.68 583.90 419.92 C 583.82 426.20 583.99 432.49 583.73 438.76 C 583.65 442.27 580.53 445.40 576.99 445.40 C 568.33 445.65 559.66 445.29 551.00 445.40 C 547.40 445.85 543.28 444.01 542.73 440.09 C 542.07 433.40 542.57 426.64 542.24 419.92 C 541.94 416.70 544.24 413.34 547.39 412.60 Z" />
<path fill="#808080" opacity="1.00" d=" M 603.32 413.20 C 605.03 412.27 607.11 412.61 608.99 412.49 C 617.65 412.66 626.32 412.36 634.97 412.65 C 638.24 412.67 641.03 415.68 641.06 418.91 C 641.36 424.25 641.08 429.60 641.21 434.95 C 641.15 437.77 641.49 441.10 639.21 443.22 C 636.68 446.19 632.44 445.38 629.00 445.47 C 621.33 445.18 613.65 445.48 605.98 445.31 C 602.22 445.35 599.72 441.52 599.87 438.05 C 599.74 432.04 599.70 426.03 599.66 420.02 C 599.50 417.27 600.99 414.62 603.32 413.20 Z" />
<path fill="#818181" opacity="1.00" d=" M 661.32 413.26 C 663.41 412.35 665.78 412.60 668.01 412.51 C 675.68 412.61 683.34 412.44 691.01 412.58 C 694.89 412.46 698.46 416.07 698.26 419.96 C 698.19 426.31 698.36 432.67 698.24 439.03 C 698.36 442.41 695.36 445.38 692.00 445.40 C 683.66 445.74 675.30 445.17 666.95 445.51 C 663.20 445.93 658.71 444.52 657.54 440.55 C 656.83 435.07 657.52 429.50 657.23 423.99 C 656.93 420.01 656.93 415.03 661.32 413.26 Z" />
<path fill="#7f8081" opacity="1.00" d=" M 718.32 413.42 C 720.67 412.26 723.41 412.70 725.95 412.61 C 733.64 412.82 741.34 412.49 749.04 412.55 C 752.57 412.37 756.26 415.13 756.17 418.86 C 756.28 425.56 756.23 432.27 756.26 438.97 C 756.48 442.36 753.42 445.59 750.00 445.39 C 740.99 445.48 731.98 445.33 722.98 445.32 C 720.32 445.33 717.02 445.16 715.58 442.53 C 714.61 440.15 714.91 437.50 714.83 435.00 C 714.94 429.64 714.63 424.28 714.88 418.94 C 714.82 416.60 716.27 414.47 718.32 413.42 Z" />
<path fill="#070706" opacity="1.00" d=" M 544.49 457.63 C 547.49 456.37 550.81 456.67 553.99 456.66 C 561.66 456.83 569.33 456.59 577.00 456.76 C 582.48 456.62 587.54 461.44 587.39 466.99 C 587.50 473.67 587.55 480.36 587.22 487.04 C 587.04 492.27 582.07 496.63 576.92 496.59 C 569.30 496.81 561.68 496.62 554.06 496.68 C 550.82 496.62 547.41 496.85 544.38 495.47 C 540.81 493.82 538.46 489.93 538.72 486.00 C 538.74 479.32 538.63 472.63 538.71 465.95 C 538.68 462.32 541.32 459.13 544.49 457.63 M 547.35 460.54 C 544.80 461.02 542.32 463.23 542.26 465.95 C 542.08 471.28 542.44 476.62 542.30 481.97 C 542.40 484.97 541.88 488.47 544.08 490.91 C 545.98 493.20 549.23 493.10 551.94 493.19 C 560.66 493.09 569.39 493.23 578.10 492.71 C 581.83 492.58 584.04 488.45 583.84 485.07 C 583.89 479.35 583.90 473.63 583.98 467.92 C 584.24 463.65 580.41 459.77 576.10 460.27 C 566.52 460.41 556.91 459.97 547.35 460.54 Z" />
<path fill="#050405" opacity="1.00" d=" M 602.44 457.57 C 605.15 456.50 608.13 456.70 611.00 456.66 C 618.67 456.72 626.34 456.57 634.01 456.78 C 637.67 456.73 641.29 458.55 643.26 461.67 C 644.94 464.10 644.66 467.20 644.78 470.01 C 644.76 475.67 644.83 481.33 644.73 487.00 C 644.77 492.10 640.01 496.65 634.94 496.63 C 625.26 496.82 615.58 496.67 605.90 496.49 C 600.89 496.49 595.96 492.20 596.16 487.01 C 595.71 480.37 595.80 473.69 595.93 467.04 C 595.78 462.86 598.65 459.11 602.44 457.57 M 604.36 460.59 C 601.38 461.61 599.02 464.67 599.35 467.91 C 599.41 473.94 599.34 479.98 599.47 486.02 C 599.43 489.57 602.51 492.77 606.05 492.96 C 615.65 493.21 625.32 493.33 634.92 492.89 C 638.03 492.72 641.14 490.23 641.31 487.00 C 641.62 481.65 641.34 476.29 641.45 470.93 C 641.40 467.87 641.68 464.17 638.98 462.07 C 636.05 459.25 631.67 460.34 628.02 460.17 C 620.14 460.49 612.20 459.78 604.36 460.59 Z" />
<path fill="#060607" opacity="1.00" d=" M 660.32 457.50 C 663.78 456.50 667.43 456.80 671.00 456.75 C 678.02 456.86 685.06 456.57 692.09 456.82 C 696.86 457.04 702.01 460.76 701.81 465.93 C 701.99 471.95 701.70 477.99 702.04 484.01 C 702.24 487.32 701.81 490.94 699.35 493.41 C 697.06 496.15 693.36 496.86 689.96 496.78 C 681.34 496.79 672.71 496.76 664.10 496.65 C 658.90 496.64 653.82 492.32 653.70 486.99 C 653.52 480.34 653.49 473.68 653.65 467.04 C 653.43 462.78 656.51 459.01 660.32 457.50 M 662.35 460.64 C 659.61 461.39 657.14 464.03 657.21 466.98 C 657.12 473.35 657.16 479.73 657.27 486.10 C 657.19 489.67 660.36 492.86 663.95 492.75 C 672.96 493.14 681.99 493.29 691.00 493.22 C 694.98 493.50 698.51 489.91 698.40 485.98 C 698.57 479.68 698.47 473.37 698.44 467.07 C 698.67 462.73 694.10 459.75 690.11 460.12 C 680.86 460.33 671.57 459.91 662.35 460.64 Z" />
<path fill="#060606" opacity="1.00" d=" M 717.31 457.47 C 719.76 456.51 722.44 456.72 725.03 456.71 C 733.34 456.83 741.65 456.83 749.96 456.78 C 754.36 456.59 758.54 459.82 759.69 464.02 C 760.03 468.34 759.60 472.69 759.89 477.02 C 760.09 481.45 760.68 486.05 759.27 490.35 C 757.33 493.57 753.95 496.57 749.98 496.44 C 740.31 496.48 730.64 496.53 720.98 496.35 C 715.70 496.33 710.77 491.43 711.20 486.07 C 711.19 479.36 711.10 472.65 711.22 465.95 C 711.06 462.14 713.93 458.85 717.31 457.47 M 718.19 461.13 C 716.37 462.18 714.45 463.86 714.47 466.14 C 714.21 471.41 714.58 476.70 714.46 481.98 C 714.49 484.90 714.17 488.33 716.49 490.57 C 718.52 493.22 722.14 492.64 725.07 492.80 C 733.41 492.74 741.75 493.07 750.09 492.77 C 754.02 492.82 756.76 488.67 756.55 485.02 C 756.64 479.00 756.60 472.98 756.48 466.96 C 756.51 463.13 752.72 460.06 749.00 460.33 C 741.98 460.33 734.97 460.59 727.95 460.44 C 724.70 460.53 721.28 459.98 718.19 461.13 Z" />
<path fill="#807f7f" opacity="1.00" d=" M 547.35 460.54 C 556.91 459.97 566.52 460.41 576.10 460.27 C 580.41 459.77 584.24 463.65 583.98 467.92 C 583.90 473.63 583.89 479.35 583.84 485.07 C 584.04 488.45 581.83 492.58 578.10 492.71 C 569.39 493.23 560.66 493.09 551.94 493.19 C 549.23 493.10 545.98 493.20 544.08 490.91 C 541.88 488.47 542.40 484.97 542.30 481.97 C 542.44 476.62 542.08 471.28 542.26 465.95 C 542.32 463.23 544.80 461.02 547.35 460.54 Z" />
<path fill="#7f7f7f" opacity="1.00" d=" M 604.36 460.59 C 612.20 459.78 620.14 460.49 628.02 460.17 C 631.67 460.34 636.05 459.25 638.98 462.07 C 641.68 464.17 641.40 467.87 641.45 470.93 C 641.34 476.29 641.62 481.65 641.31 487.00 C 641.14 490.23 638.03 492.72 634.92 492.89 C 625.32 493.33 615.65 493.21 606.05 492.96 C 602.51 492.77 599.43 489.57 599.47 486.02 C 599.34 479.98 599.41 473.94 599.35 467.91 C 599.02 464.67 601.38 461.61 604.36 460.59 Z" />
<path fill="#818181" opacity="1.00" d=" M 662.35 460.64 C 671.57 459.91 680.86 460.33 690.11 460.12 C 694.10 459.75 698.67 462.73 698.44 467.07 C 698.47 473.37 698.57 479.68 698.40 485.98 C 698.51 489.91 694.98 493.50 691.00 493.22 C 681.99 493.29 672.96 493.14 663.95 492.75 C 660.36 492.86 657.19 489.67 657.27 486.10 C 657.16 479.73 657.12 473.35 657.21 466.98 C 657.14 464.03 659.61 461.39 662.35 460.64 Z" />
<path fill="#7d7e7d" opacity="1.00" d=" M 718.19 461.13 C 721.28 459.98 724.70 460.53 727.95 460.44 C 734.97 460.59 741.98 460.33 749.00 460.33 C 752.72 460.06 756.51 463.13 756.48 466.96 C 756.60 472.98 756.64 479.00 756.55 485.02 C 756.76 488.67 754.02 492.82 750.09 492.77 C 741.75 493.07 733.41 492.74 725.07 492.80 C 722.14 492.64 718.52 493.22 716.49 490.57 C 714.17 488.33 714.49 484.90 714.46 481.98 C 714.58 476.70 714.21 471.41 714.47 466.14 C 714.45 463.86 716.37 462.18 718.19 461.13 Z" />
<path fill="#070808" opacity="1.00" d=" M 546.23 504.24 C 550.12 503.46 554.11 503.86 558.05 503.80 C 564.73 503.92 571.44 503.56 578.12 504.19 C 583.10 504.30 587.76 508.83 587.39 513.95 C 587.46 520.63 587.46 527.31 587.38 533.98 C 587.44 539.33 582.33 544.01 577.04 543.79 C 567.68 543.97 558.32 543.89 548.97 543.80 C 543.69 544.00 539.02 539.17 538.87 534.00 C 538.98 526.32 538.30 518.56 539.11 510.92 C 540.01 507.63 542.86 504.89 546.23 504.24 M 545.45 508.49 C 543.41 509.96 542.11 512.38 542.30 514.93 C 542.35 520.96 542.37 527.00 542.43 533.03 C 542.22 536.66 545.19 540.08 548.90 540.08 C 557.95 540.40 567.02 540.16 576.08 540.20 C 579.65 540.44 583.60 537.90 583.73 534.09 C 584.01 527.72 583.82 521.32 583.91 514.94 C 584.20 511.52 581.64 507.59 577.97 507.62 C 569.32 507.40 560.66 507.86 552.01 507.49 C 549.83 507.59 547.33 507.11 545.45 508.49 Z" />
<path fill="#070607" opacity="1.00" d=" M 604.25 504.20 C 614.48 503.36 624.78 504.14 635.04 504.21 C 639.63 503.94 644.35 507.59 644.51 512.34 C 644.74 519.52 644.66 526.72 644.58 533.92 C 644.73 539.36 639.47 544.29 634.04 543.83 C 624.67 543.92 615.29 543.85 605.92 543.81 C 602.62 543.88 599.53 541.93 597.78 539.21 C 596.09 536.82 596.42 533.75 596.28 530.98 C 596.29 524.96 596.05 518.95 596.20 512.94 C 596.14 508.52 600.14 504.96 604.25 504.20 M 603.38 508.36 C 601.17 509.82 599.54 512.30 599.70 515.03 C 599.65 521.01 599.69 527.00 599.79 532.99 C 599.66 536.44 602.30 540.15 605.98 540.10 C 613.97 540.34 621.96 540.07 629.95 540.26 C 633.03 540.18 636.75 540.60 639.08 538.12 C 641.75 535.87 641.17 532.10 641.25 529.01 C 641.04 523.67 641.53 518.30 640.96 512.98 C 640.71 510.01 637.92 507.69 634.99 507.76 C 626.67 507.47 618.33 507.81 610.01 507.55 C 607.81 507.65 605.36 507.19 603.38 508.36 Z" />
<path fill="#060708" opacity="1.00" d=" M 662.15 504.27 C 672.11 503.95 682.10 504.18 692.07 504.17 C 696.88 503.92 701.92 507.96 701.78 512.97 C 701.82 520.00 701.92 527.05 701.80 534.09 C 701.92 539.57 696.45 544.27 691.08 543.86 C 682.04 543.88 672.99 543.88 663.96 543.77 C 658.64 544.07 653.68 539.34 653.72 534.02 C 653.57 527.35 653.57 520.67 653.61 514.00 C 653.37 509.20 657.44 504.75 662.15 504.27 M 661.16 508.22 C 659.03 509.29 657.04 511.40 657.21 513.95 C 657.07 519.29 657.37 524.64 657.21 529.99 C 657.25 532.69 656.81 535.90 659.02 537.94 C 661.50 540.82 665.66 540.13 669.04 540.21 C 676.72 539.94 684.41 540.51 692.08 540.14 C 695.68 540.00 698.70 536.63 698.39 533.02 C 698.44 526.65 698.40 520.28 698.33 513.91 C 698.56 510.52 695.29 507.81 692.08 507.75 C 684.39 507.44 676.70 507.79 669.01 507.64 C 666.39 507.70 663.68 507.41 661.16 508.22 Z" />
<path fill="#060708" opacity="1.00" d=" M 717.47 504.64 C 720.84 503.50 724.46 503.81 727.97 503.77 C 735.34 503.86 742.72 503.72 750.10 503.79 C 755.47 503.60 760.54 508.52 760.19 513.95 C 760.11 529.64 760.18 545.33 760.01 561.01 C 759.92 576.53 746.82 591.36 731.02 591.77 C 726.66 591.80 722.15 592.27 717.91 591.05 C 714.31 589.59 710.92 586.20 711.26 582.03 C 711.15 559.34 711.26 536.64 711.28 513.95 C 711.01 509.88 713.73 506.08 717.47 504.64 M 718.20 508.21 C 715.78 509.51 714.45 512.26 714.72 514.97 C 714.75 536.98 714.77 558.98 714.76 580.99 C 714.38 584.60 717.57 587.61 721.00 587.95 C 726.18 588.52 731.49 588.40 736.61 587.36 C 748.39 584.09 756.56 572.11 756.53 560.07 C 756.58 545.02 756.51 529.97 756.61 514.92 C 757.14 511.11 753.76 507.44 749.96 507.56 C 741.32 507.37 732.67 507.65 724.02 507.52 C 722.08 507.64 719.98 507.30 718.20 508.21 Z" />
<path fill="#807f7f" opacity="1.00" d=" M 545.45 508.49 C 547.33 507.11 549.83 507.59 552.01 507.49 C 560.66 507.86 569.32 507.40 577.97 507.62 C 581.64 507.59 584.20 511.52 583.91 514.94 C 583.82 521.32 584.01 527.72 583.73 534.09 C 583.60 537.90 579.65 540.44 576.08 540.20 C 567.02 540.16 557.95 540.40 548.90 540.08 C 545.19 540.08 542.22 536.66 542.43 533.03 C 542.37 527.00 542.35 520.96 542.30 514.93 C 542.11 512.38 543.41 509.96 545.45 508.49 Z" />
<path fill="#818081" opacity="1.00" d=" M 603.38 508.36 C 605.36 507.19 607.81 507.65 610.01 507.55 C 618.33 507.81 626.67 507.47 634.99 507.76 C 637.92 507.69 640.71 510.01 640.96 512.98 C 641.53 518.30 641.04 523.67 641.25 529.01 C 641.17 532.10 641.75 535.87 639.08 538.12 C 636.75 540.60 633.03 540.18 629.95 540.26 C 621.96 540.07 613.97 540.34 605.98 540.10 C 602.30 540.15 599.66 536.44 599.79 532.99 C 599.69 527.00 599.65 521.01 599.70 515.03 C 599.54 512.30 601.17 509.82 603.38 508.36 Z" />
<path fill="#808080" opacity="1.00" d=" M 661.16 508.22 C 663.68 507.41 666.39 507.70 669.01 507.64 C 676.70 507.79 684.39 507.44 692.08 507.75 C 695.29 507.81 698.56 510.52 698.33 513.91 C 698.40 520.28 698.44 526.65 698.39 533.02 C 698.70 536.63 695.68 540.00 692.08 540.14 C 684.41 540.51 676.72 539.94 669.04 540.21 C 665.66 540.13 661.50 540.82 659.02 537.94 C 656.81 535.90 657.25 532.69 657.21 529.99 C 657.37 524.64 657.07 519.29 657.21 513.95 C 657.04 511.40 659.03 509.29 661.16 508.22 Z" />
<path fill="#807f7f" opacity="1.00" d=" M 718.20 508.21 C 719.98 507.30 722.08 507.64 724.02 507.52 C 732.67 507.65 741.32 507.37 749.96 507.56 C 753.76 507.44 757.14 511.11 756.61 514.92 C 756.51 529.97 756.58 545.02 756.53 560.07 C 756.56 572.11 748.39 584.09 736.61 587.36 C 731.49 588.40 726.18 588.52 721.00 587.95 C 717.57 587.61 714.38 584.60 714.76 580.99 C 714.77 558.98 714.75 536.98 714.72 514.97 C 714.45 512.26 715.78 509.51 718.20 508.21 Z" />
<path fill="#090a09" opacity="1.00" d=" M 546.38 551.62 C 556.22 550.98 566.12 551.57 575.98 551.44 C 581.14 551.06 586.70 554.60 587.29 559.99 C 587.75 565.30 587.36 570.64 587.53 575.97 C 587.53 580.26 587.91 585.31 584.37 588.45 C 579.47 593.19 572.13 591.32 566.02 591.72 C 556.00 592.14 546.29 586.12 541.67 577.33 C 539.44 572.88 539.01 567.81 538.52 562.93 C 537.78 557.86 541.50 552.82 546.38 551.62 M 546.42 555.48 C 541.72 557.17 541.30 562.72 542.51 566.88 C 543.36 576.58 550.68 585.59 560.38 587.49 C 564.57 588.08 568.82 587.88 573.03 588.12 C 576.04 588.10 579.65 588.35 581.90 585.95 C 584.21 583.59 583.77 580.04 583.87 577.03 C 583.71 572.01 584.02 567.00 583.88 561.99 C 583.80 558.80 581.46 555.44 578.11 555.15 C 573.09 554.53 568.04 555.41 563.01 555.22 C 557.48 555.42 551.90 554.69 546.42 555.48 Z" />
<path fill="#070607" opacity="1.00" d=" M 604.44 551.64 C 614.56 551.08 624.75 551.44 634.89 551.51 C 639.88 551.44 644.49 555.80 644.52 560.83 C 644.77 567.89 644.83 574.97 644.69 582.03 C 644.72 587.48 639.31 591.91 634.02 591.64 C 624.98 591.74 615.95 591.56 606.91 591.56 C 602.48 591.76 597.98 588.92 596.55 584.70 C 595.84 579.49 596.31 574.21 596.13 568.98 C 596.23 565.27 595.69 561.44 596.75 557.84 C 598.19 554.77 601.07 552.27 604.44 551.64 M 604.25 555.39 C 601.28 556.58 599.23 559.78 599.52 563.00 C 599.57 569.00 599.61 574.99 599.64 580.99 C 599.31 584.53 602.46 587.88 606.00 587.83 C 611.01 588.03 616.02 587.75 621.03 587.89 C 625.94 587.91 630.88 588.50 635.76 587.77 C 639.00 587.39 641.47 584.19 641.33 580.98 C 641.40 574.65 641.30 568.32 641.22 562.00 C 641.36 558.14 637.89 554.74 634.06 554.85 C 627.36 554.65 620.67 554.93 613.97 554.82 C 610.73 554.87 607.41 554.51 604.25 555.39 Z" />
<path fill="#07090b" opacity="1.00" d=" M 662.37 551.46 C 671.92 551.20 681.49 551.43 691.04 551.38 C 696.33 551.11 702.02 555.31 701.84 560.91 C 701.75 568.26 701.96 575.62 701.68 582.96 C 701.64 585.99 699.44 588.45 697.04 590.04 C 694.06 591.94 690.36 591.62 686.99 591.70 C 679.09 591.59 671.19 591.79 663.30 591.56 C 658.29 591.54 653.74 587.14 653.73 582.10 C 653.51 575.41 653.56 568.72 653.57 562.04 C 653.28 556.98 657.33 552.03 662.37 551.46 M 661.33 555.47 C 659.18 556.43 657.33 558.50 657.23 560.94 C 656.92 566.61 657.32 572.29 657.12 577.97 C 657.23 580.48 656.79 583.43 658.61 585.47 C 660.61 587.97 664.13 587.77 667.02 587.87 C 675.35 587.74 683.69 588.51 692.01 587.99 C 695.64 587.95 698.39 584.46 698.35 580.98 C 698.51 574.67 698.30 568.35 698.29 562.04 C 698.46 558.14 694.84 554.72 691.02 554.78 C 683.69 554.65 676.35 554.86 669.02 554.76 C 666.45 554.81 663.77 554.55 661.33 555.47 Z" />
<path fill="#808080" opacity="1.00" d=" M 546.42 555.48 C 551.90 554.69 557.48 555.42 563.01 555.22 C 568.04 555.41 573.09 554.53 578.11 555.15 C 581.46 555.44 583.80 558.80 583.88 561.99 C 584.02 567.00 583.71 572.01 583.87 577.03 C 583.77 580.04 584.21 583.59 581.90 585.95 C 579.65 588.35 576.04 588.10 573.03 588.12 C 568.82 587.88 564.57 588.08 560.38 587.49 C 550.68 585.59 543.36 576.58 542.51 566.88 C 541.30 562.72 541.72 557.17 546.42 555.48 Z" />
<path fill="#7e7e7e" opacity="1.00" d=" M 604.25 555.39 C 607.41 554.51 610.73 554.87 613.97 554.82 C 620.67 554.93 627.36 554.65 634.06 554.85 C 637.89 554.74 641.36 558.14 641.22 562.00 C 641.30 568.32 641.40 574.65 641.33 580.98 C 641.47 584.19 639.00 587.39 635.76 587.77 C 630.88 588.50 625.94 587.91 621.03 587.89 C 616.02 587.75 611.01 588.03 606.00 587.83 C 602.46 587.88 599.31 584.53 599.64 580.99 C 599.61 574.99 599.57 569.00 599.52 563.00 C 599.23 559.78 601.28 556.58 604.25 555.39 Z" />
<path fill="#818081" opacity="1.00" d=" M 661.33 555.47 C 663.77 554.55 666.45 554.81 669.02 554.76 C 676.35 554.86 683.69 554.65 691.02 554.78 C 694.84 554.72 698.46 558.14 698.29 562.04 C 698.30 568.35 698.51 574.67 698.35 580.98 C 698.39 584.46 695.64 587.95 692.01 587.99 C 683.69 588.51 675.35 587.74 667.02 587.87 C 664.13 587.77 660.61 587.97 658.61 585.47 C 656.79 583.43 657.23 580.48 657.12 577.97 C 657.32 572.29 656.92 566.61 657.23 560.94 C 657.33 558.50 659.18 556.43 661.33 555.47 Z" />
</svg>
