<svg xmlns="http://www.w3.org/2000/svg" viewBox="0 0 1000 1200">
  <!-- Background and Title -->
  <rect width="1000" height="1200" fill="#f0f4f8"/>
  <text x="500" y="40" font-family="Arial, sans-serif" font-size="24" font-weight="bold" text-anchor="middle" fill="#234567">OdAR System with Nanotubular Follicle Integration</text>
  <text x="500" y="70" font-family="Arial, sans-serif" font-size="16" text-anchor="middle" fill="#456789">Technical Blueprint and Implementation Schema</text>
  
  <!-- Divider lines -->
  <line x1="50" y1="90" x2="950" y2="90" stroke="#456789" stroke-width="2" stroke-dasharray="5,5"/>
  <line x1="500" y1="100" x2="500" y2="600" stroke="#456789" stroke-width="1" stroke-dasharray="5,5"/>
  
  <!-- Device Schematic - Left Side -->
  <g transform="translate(50, 130)">
    <rect x="0" y="0" width="400" height="450" fill="none" stroke="#234567" stroke-width="2"/>
    <text x="200" y="-15" font-family="Arial, sans-serif" font-size="18" font-weight="bold" text-anchor="middle" fill="#234567">OdAR Device with Nanofollicle Enhancement</text>

    <!-- Device Body -->
    <rect x="50" y="50" width="300" height="150" rx="10" ry="10" fill="#d9e6f2" stroke="#234567" stroke-width="2"/>
    <text x="200" y="40" font-family="Arial, sans-serif" font-size="14" font-weight="bold" text-anchor="middle" fill="#234567">Device Enclosure (100mm × 60mm × 30mm)</text>
    
    <!-- Display -->
    <rect x="80" y="70" width="120" height="60" fill="#b3cce6" stroke="#234567" stroke-width="1"/>
    <text x="140" y="105" font-family="Arial, sans-serif" font-size="10" text-anchor="middle" fill="#234567">OLED Display</text>
    
    <!-- Control Buttons -->
    <circle cx="240" cy="85" r="10" fill="#9fbfdf" stroke="#234567" stroke-width="1"/>
    <circle cx="280" cy="85" r="10" fill="#9fbfdf" stroke="#234567" stroke-width="1"/>
    <circle cx="320" cy="85" r="10" fill="#9fbfdf" stroke="#234567" stroke-width="1"/>
    <text x="280" cy="110" font-family="Arial, sans-serif" font-size="10" text-anchor="middle" fill="#234567">Control Buttons</text>
    
    <!-- Sensor Array With Nanofollicles -->
    <rect x="80" y="150" width="240" height="30" fill="#93b3d9" stroke="#234567" stroke-width="1"/>
    <text x="200" y="170" font-family="Arial, sans-serif" font-size="10" text-anchor="middle" fill="#234567">Sensor Array Housing</text>
    
    <!-- PCB Section -->
    <rect x="50" y="220" width="300" height="80" fill="#e6f0fa" stroke="#234567" stroke-width="1"/>
    <text x="200" y="210" font-family="Arial, sans-serif" font-size="14" font-weight="bold" text-anchor="middle" fill="#234567">Internal Components</text>
    
    <!-- Processor -->
    <rect x="70" y="235" width="60" height="50" fill="#7da7cc" stroke="#234567" stroke-width="1"/>
    <text x="100" y="265" font-family="Arial, sans-serif" font-size="8" text-anchor="middle" fill="white">ESP32 Processor</text>
    
    <!-- Power Management -->
    <rect x="140" y="235" width="60" height="50" fill="#7da7cc" stroke="#234567" stroke-width="1"/>
    <text x="170" y="265" font-family="Arial, sans-serif" font-size="8" text-anchor="middle" fill="white">Power Management</text>
    
    <!-- Connectivity -->
    <rect x="210" y="235" width="60" height="50" fill="#7da7cc" stroke="#234567" stroke-width="1"/>
    <text x="240" y="265" font-family="Arial, sans-serif" font-size="8" text-anchor="middle" fill="white">Wi-Fi/BT Module</text>
    
    <!-- Memory -->
    <rect x="280" y="235" width="60" height="50" fill="#7da7cc" stroke="#234567" stroke-width="1"/>
    <text x="310" y="265" font-family="Arial, sans-serif" font-size="8" text-anchor="middle" fill="white">Flash Memory</text>
    
    <!-- Battery Section -->
    <rect x="50" y="320" width="300" height="30" fill="#b8d1e6" stroke="#234567" stroke-width="1"/>
    <text x="200" y="340" font-family="Arial, sans-serif" font-size="10" text-anchor="middle" fill="#234567">Li-Ion Battery (3.7V, 3000mAh)</text>
    
    <!-- Nanofollicle Integration Detail -->
    <rect x="50" y="370" width="300" height="70" fill="#d9e6f2" stroke="#234567" stroke-width="1" stroke-dasharray="5,3"/>
    <rect x="60" y="380" width="280" height="50" fill="#c4daed" stroke="#234567" stroke-width="1"/>
    <text x="200" y="370" font-family="Arial, sans-serif" font-size="12" font-weight="bold" text-anchor="middle" fill="#234567">Sensor Array Cross-Section</text>
    
    <!-- Nanofollicle Array -->
    <g transform="translate(90, 405)">
      <!-- Nanotube 1 -->
      <circle cx="0" cy="0" r="12" fill="#93b3d9" stroke="#234567" stroke-width="1"/>
      <circle cx="0" cy="0" r="6" fill="#ffffff" stroke="#234567" stroke-width="0.5"/>
      
      <!-- Nanotube 2 -->
      <circle cx="40" cy="0" r="12" fill="#93b3d9" stroke="#234567" stroke-width="1"/>
      <circle cx="40" cy="0" r="6" fill="#ffffff" stroke="#234567" stroke-width="0.5"/>
      
      <!-- Nanotube 3 -->
      <circle cx="80" cy="0" r="12" fill="#93b3d9" stroke="#234567" stroke-width="1"/>
      <circle cx="80" cy="0" r="6" fill="#ffffff" stroke="#234567" stroke-width="0.5"/>
      
      <!-- Nanotube 4 -->
      <circle cx="120" cy="0" r="12" fill="#93b3d9" stroke="#234567" stroke-width="1"/>
      <circle cx="120" cy="0" r="6" fill="#ffffff" stroke="#234567" stroke-width="0.5"/>
      
      <!-- Nanotube 5 -->
      <circle cx="160" cy="0" r="12" fill="#93b3d9" stroke="#234567" stroke-width="1"/>
      <circle cx="160" cy="0" r="6" fill="#ffffff" stroke="#234567" stroke-width="0.5"/>
      
      <!-- Nanotube 6 -->
      <circle cx="200" cy="0" r="12" fill="#93b3d9" stroke="#234567" stroke-width="1"/>
      <circle cx="200" cy="0" r="6" fill="#ffffff" stroke="#234567" stroke-width="0.5"/>
    </g>
    <text x="200" y="415" font-family="Arial, sans-serif" font-size="8" text-anchor="middle" fill="#234567">Nanotubular Follicles (350μm outer diameter)</text>
  </g>
  
  <!-- Chamber Schematic - Right Side -->
  <g transform="translate(550, 130)">
    <rect x="0" y="0" width="400" height="450" fill="none" stroke="#234567" stroke-width="2"/>
    <text x="200" y="-15" font-family="Arial, sans-serif" font-size="18" font-weight="bold" text-anchor="middle" fill="#234567">Testing Chamber with Nanofollicle Testing Setup</text>
    
    <!-- Chamber Walls -->
    <rect x="50" y="50" width="300" height="300" fill="#e6f0fa" stroke="#234567" stroke-width="2"/>
    <text x="200" y="40" font-family="Arial, sans-serif" font-size="14" font-weight="bold" text-anchor="middle" fill="#234567">Testing Chamber (5.0m × 5.0m × 3.0m)</text>
    
    <!-- Airlock -->
    <rect x="30" y="170" width="20" height="60" fill="#b3cce6" stroke="#234567" stroke-width="1"/>
    <text x="40" y="250" font-family="Arial, sans-serif" font-size="10" text-anchor="middle" transform="rotate(-90,40,250)" fill="#234567">Airlock</text>
    
    <!-- Environmental Control Systems -->
    <rect x="60" y="70" width="280" height="40" fill="#c4daed" stroke="#234567" stroke-width="1"/>
    <text x="200" y="95" font-family="Arial, sans-serif" font-size="10" text-anchor="middle" fill="#234567">Environmental Control (Temp: 22°C ±1°C, RH: 45% ±5%)</text>
    
    <!-- Gas Delivery System -->
    <rect x="60" y="120" width="80" height="40" fill="#93b3d9" stroke="#234567" stroke-width="1"/>
    <text x="100" y="145" font-family="Arial, sans-serif" font-size="8" text-anchor="middle" fill="#234567">Gas Delivery</text>
    
    <!-- Reference Equipment -->
    <rect x="150" y="120" width="80" height="40" fill="#93b3d9" stroke="#234567" stroke-width="1"/>
    <text x="190" y="145" font-family="Arial, sans-serif" font-size="8" text-anchor="middle" fill="#234567">Reference Equipment</text>
    
    <!-- Data Acquisition -->
    <rect x="240" y="120" width="80" height="40" fill="#93b3d9" stroke="#234567" stroke-width="1"/>
    <text x="280" y="145" font-family="Arial, sans-serif" font-size="8" text-anchor="middle" fill="#234567">Data Acquisition</text>
    
    <!-- Testing Platform -->
    <rect x="100" y="180" width="200" height="150" fill="#d9e6f2" stroke="#234567" stroke-width="1"/>
    <text x="200" y="170" font-family="Arial, sans-serif" font-size="12" font-weight="bold" text-anchor="middle" fill="#234567">Nanofollicle Testing Platform</text>
    
    <!-- Nanofollicle Test Station -->
    <g transform="translate(150, 255)">
      <!-- Test Fixture Base -->
      <rect x="0" y="0" width="100" height="10" fill="#7da7cc" stroke="#234567" stroke-width="1"/>
      
      <!-- Micropositioner -->
      <rect x="25" y="-20" width="50" height="20" fill="#93b3d9" stroke="#234567" stroke-width="1"/>
      <text x="50" y="-5" font-family="Arial, sans-serif" font-size="8" text-anchor="middle" fill="#234567">Micropositioner</text>
      
      <!-- Nanofollicle Test Array -->
      <g transform="translate(50, -40)">
        <!-- Test Array Base -->
        <rect x="-30" y="-5" width="60" height="5" fill="#b3cce6" stroke="#234567" stroke-width="0.5"/>
        
        <!-- Nanotube Array for Testing -->
        <circle cx="-20" cy="-20" r="10" fill="#93b3d9" stroke="#234567" stroke-width="0.5"/>
        <circle cx="-20" cy="-20" r="5" fill="#ffffff" stroke="#234567" stroke-width="0.5"/>
        
        <circle cx="0" cy="-20" r="10" fill="#93b3d9" stroke="#234567" stroke-width="0.5"/>
        <circle cx="0" cy="-20" r="5" fill="#ffffff" stroke="#234567" stroke-width="0.5"/>
        
        <circle cx="20" cy="-20" r="10" fill="#93b3d9" stroke="#234567" stroke-width="0.5"/>
        <circle cx="20" cy="-20" r="5" fill="#ffffff" stroke="#234567" stroke-width="0.5"/>
        
        <!-- Airflow indicators -->
        <path d="M0,-45 L0,-35 M-5,-40 L0,-35 L5,-40" stroke="#456789" stroke-width="1" fill="none"/>
        <text x="0" y="-50" font-family="Arial, sans-serif" font-size="8" text-anchor="middle" fill="#456789">Test Gas Flow</text>
      </g>
    </g>
    
    <!-- Monitoring System -->
    <rect x="50" y="370" width="300" height="30" fill="#b8d1e6" stroke="#234567" stroke-width="1"/>
    <text x="200" y="390" font-family="Arial, sans-serif" font-size="10" text-anchor="middle" fill="#234567">Monitoring System (Real-time Data Analysis)</text>
    
    <!-- Notes -->
    <rect x="50" y="410" width="300" height="30" fill="#e6f0fa" stroke="#234567" stroke-width="1" stroke-dasharray="5,3"/>
    <text x="200" y="430" font-family="Arial, sans-serif" font-size="10" text-anchor="middle" fill="#234567">Individual Nanofollicle Characterization Station</text>
  </g>
  
  <!-- Nanofollicle Detailed Structure - Bottom Half -->
  <g transform="translate(50, 620)">
    <rect x="0" y="0" width="900" height="550" fill="none" stroke="#234567" stroke-width="2"/>
    <text x="450" y="-15" font-family="Arial, sans-serif" font-size="18" font-weight="bold" text-anchor="middle" fill="#234567">Nanotubular Follicle Detailed Structure</text>
    
    <!-- Dimensions label -->
    <text x="50" y="30" font-family="Arial, sans-serif" font-size="14" font-weight="bold" fill="#234567">Dimensions:</text>
    <text x="50" y="50" font-family="Arial, sans-serif" font-size="12" fill="#456789">- Outer diameter: 350μm</text>
    <text x="50" y="70" font-family="Arial, sans-serif" font-size="12" fill="#456789">- Inner diameter: 200μm</text>
    <text x="50" y="90" font-family="Arial, sans-serif" font-size="12" fill="#456789">- Tube height: 0.6mm</text>
    <text x="50" y="110" font-family="Arial, sans-serif" font-size="12" fill="#456789">- Wall thickness: 75μm</text>
    
    <!-- Materials label -->
    <text x="250" y="30" font-family="Arial, sans-serif" font-size="14" font-weight="bold" fill="#234567">Material Composition:</text>
    <text x="250" y="50" font-family="Arial, sans-serif" font-size="12" fill="#456789">- Base: Electrospun polyacrylonitrile (PAN)</text>
    <text x="250" y="70" font-family="Arial, sans-serif" font-size="12" fill="#456789">- Fiber diameter: 120-180nm</text>
    <text x="250" y="90" font-family="Arial, sans-serif" font-size="12" fill="#456789">- Conductive coating: PEDOT:PSS/ZIF-8 composite</text>
    <text x="250" y="110" font-family="Arial, sans-serif" font-size="12" fill="#456789">- Surface treatment: Oxygen plasma activation</text>
    
    <!-- Integration label -->
    <text x="600" y="30" font-family="Arial, sans-serif" font-size="14" font-weight="bold" fill="#234567">Integration Notes:</text>
    <text x="600" y="50" font-family="Arial, sans-serif" font-size="12" fill="#456789">- Attachment: Microadhesive bonding to sensor substrate</text>
    <text x="600" y="70" font-family="Arial, sans-serif" font-size="12" fill="#456789">- Signal pathway: Direct electrical connection to PCB</text>
    <text x="600" y="90" font-family="Arial, sans-serif" font-size="12" fill="#456789">- Array configuration: 8 follicles per sensor unit</text>
    <text x="600" y="110" font-family="Arial, sans-serif" font-size="12" fill="#456789">- Replacement interval: 12-18 months</text>
    
    <!-- Main tubular structure - Center enlarged view -->
    <g transform="translate(450, 290) scale(2)">
      <!-- Base nanofiber layer -->
      <rect x="-100" y="100" width="200" height="10" fill="#b3cce6" stroke="#234567" stroke-width="0.5"/>
      <text x="120" y="105" font-family="Arial, sans-serif" font-size="7" fill="#234567">Base Nanofiber Layer</text>
      
      <!-- Tube outer wall -->
      <path d="M-75,100 L-75,0 C-75,-20 75,-20 75,0 L75,100" fill="none" stroke="#234567" stroke-width="1.5"/>
      
      <!-- Tube inner wall -->
      <path d="M-45,100 L-45,10 C-45,0 45,0 45,10 L45,100" fill="none" stroke="#345678" stroke-width="1"/>
      
      <!-- Zone 1: Entrance Filtering (top 100μm) -->
      <path d="M-75,0 C-75,-20 75,-20 75,0 L75,25 C75,20 -75,20 -75,25 Z" fill="#f1c40f" fill-opacity="0.7" stroke="#d35400" stroke-width="0.5"/>
      <path d="M-45,10 C-45,0 45,0 45,10 L45,25 C45,20 -45,20 -45,25 Z" fill="#f1c40f" fill-opacity="0.4"/>
      <text x="120" y="15" font-family="Arial, sans-serif" font-size="7" fill="#234567">Zone 1: Entrance Filtering</text>
      <text x="120" y="25" font-family="Arial, sans-serif" font-size="6" fill="#456789">- Size-selective filtering</text>
      <text x="120" y="35" font-family="Arial, sans-serif" font-size="6" fill="#456789">- Pore size: 2.5μm to 0.8μm</text>
      
      <!-- Zone 2: Concentration Enhancement (middle 200μm) -->
      <path d="M-75,25 C-75,20 75,20 75,25 L75,60 C75,55 -75,55 -75,60 Z" fill="#3498db" fill-opacity="0.7" stroke="#2980b9" stroke-width="0.5"/>
      <path d="M-45,25 C-45,20 45,20 45,25 L45,60 C45,55 -45,55 -45,60 Z" fill="#3498db" fill-opacity="0.4"/>
      <text x="120" y="45" font-family="Arial, sans-serif" font-size="7" fill="#234567">Zone 2: Concentration Enhancement</text>
      <text x="120" y="55" font-family="Arial, sans-serif" font-size="6" fill="#456789">- Compound adsorption</text>
      <text x="120" y="65" font-family="Arial, sans-serif" font-size="6" fill="#456789">- Surface area: >1000m²/g</text>
      
      <!-- Zone 3: Detection Region (inner 300μm) -->
      <path d="M-75,60 C-75,55 75,55 75,60 L75,100 C75,100 -75,100 -75,100 Z" fill="#27ae60" fill-opacity="0.7" stroke="#16a085" stroke-width="0.5"/>
      <path d="M-45,60 C-45,55 45,55 45,60 L45,100 C45,100 -45,100 -45,100 Z" fill="#27ae60" fill-opacity="0.4"/>
      <text x="120" y="75" font-family="Arial, sans-serif" font-size="7" fill="#234567">Zone 3: Detection Region</text>
      <text x="120" y="85" font-family="Arial, sans-serif" font-size="6" fill="#456789">- Compound identification</text>
      <text x="120" y="95" font-family="Arial, sans-serif" font-size="6" fill="#456789">- Signal transduction</text>
      
      <!-- Airflow indicators -->
      <path d="M0,-40 L0,-25 M-5,-30 L0,-25 L5,-30" stroke="#456789" stroke-width="1" fill="none"/>
      <text x="0" y="-45" font-family="Arial, sans-serif" font-size="7" text-anchor="middle" fill="#456789">Airflow</text>
      
      <!-- Signal indicators -->
      <path d="M-100,105 L-120,115 L-140,115" stroke="#d35400" stroke-width="1" fill="none"/>
      <circle cx="-145" cy="115" r="5" fill="#e74c3c"/>
      <text x="-150" y="130" font-family="Arial, sans-serif" font-size="7" text-anchor="middle" fill="#234567">Signal Output</text>
    </g>
    
    <!-- Sensor Integration Diagram - Bottom Area -->
    <text x="450" y="450" font-family="Arial, sans-serif" font-size="16" font-weight="bold" text-anchor="middle" fill="#234567">Nanofollicle Array Integration with MOS and Polymer Sensors</text>
    
    <g transform="translate(100, 500)">
      <!-- MOS Sensor Integration -->
      <rect x="0" y="0" width="200" height="30" fill="#d9e6f2" stroke="#234567" stroke-width="1"/>
      <text x="100" y="-10" font-family="Arial, sans-serif" font-size="12" font-weight="bold" text-anchor="middle" fill="#234567">MOS Sensor Integration</text>
      
      <!-- MOS Sensor Base -->
      <rect x="30" y="5" width="140" height="20" fill="#b3cce6" stroke="#234567" stroke-width="1"/>
      <text x="100" y="19" font-family="Arial, sans-serif" font-size="8" text-anchor="middle" fill="#234567">SnO₂/ZnO/WO₃ Base</text>
      
      <!-- Nanotubes -->
      <circle cx="50" cy="5" r="8" fill="#93b3d9" stroke="#234567" stroke-width="0.5" stroke-dasharray="2,1"/>
      <circle cx="50" cy="5" r="4" fill="#ffffff" stroke="#234567" stroke-width="0.5"/>
      
      <circle cx="80" cy="5" r="8" fill="#93b3d9" stroke="#234567" stroke-width="0.5" stroke-dasharray="2,1"/>
      <circle cx="80" cy="5" r="4" fill="#ffffff" stroke="#234567" stroke-width="0.5"/>
      
      <circle cx="110" cy="5" r="8" fill="#93b3d9" stroke="#234567" stroke-width="0.5" stroke-dasharray="2,1"/>
      <circle cx="110" cy="5" r="4" fill="#ffffff" stroke="#234567" stroke-width="0.5"/>
      
      <circle cx="140" cy="5" r="8" fill="#93b3d9" stroke="#234567" stroke-width="0.5" stroke-dasharray="2,1"/>
      <circle cx="140" cy="5" r="4" fill="#ffffff" stroke="#234567" stroke-width="0.5"/>
    </g>
    
    <g transform="translate(350, 500)">
      <!-- Polymer Sensor Integration -->
      <rect x="0" y="0" width="200" height="30" fill="#d9e6f2" stroke="#234567" stroke-width="1"/>
      <text x="100" y="-10" font-family="Arial, sans-serif" font-size="12" font-weight="bold" text-anchor="middle" fill="#234567">Polymer Sensor Integration</text>
      
      <!-- Polymer Sensor Base -->
      <rect x="30" y="5" width="140" height="20" fill="#c4daed" stroke="#234567" stroke-width="1"/>
      <text x="100" y="19" font-family="Arial, sans-serif" font-size="8" text-anchor="middle" fill="#234567">PANI/PPy Base</text>
      
      <!-- Nanotubes -->
      <circle cx="50" cy="5" r="8" fill="#93b3d9" stroke="#234567" stroke-width="0.5" stroke-dasharray="2,1"/>
      <circle cx="50" cy="5" r="4" fill="#ffffff" stroke="#234567" stroke-width="0.5"/>
      
      <circle cx="80" cy="5" r="8" fill="#93b3d9" stroke="#234567" stroke-width="0.5" stroke-dasharray="2,1"/>
      <circle cx="80" cy="5" r="4" fill="#ffffff" stroke="#234567" stroke-width="0.5"/>
      
      <circle cx="110" cy="5" r="8" fill="#93b3d9" stroke="#234567" stroke-width="0.5" stroke-dasharray="2,1"/>
      <circle cx="110" cy="5" r="4" fill="#ffffff" stroke="#234567" stroke-width="0.5"/>
      
      <circle cx="140" cy="5" r="8" fill="#93b3d9" stroke="#234567" stroke-width="0.5" stroke-dasharray="2,1"/>
      <circle cx="140" cy="5" r="4" fill="#ffffff" stroke="#234567" stroke-width="0.5"/>
    </g>
    
    <g transform="translate(600, 500)">
      <!-- Performance Enhancement -->
      <rect x="0" y="0" width="200" height="30" fill="#d9e6f2" stroke="#234567" stroke-width="1"/>
      <text x="100" y="-10" font-family="Arial, sans-serif" font-size="12" font-weight="bold" text-anchor="middle" fill="#234567">Performance Enhancement</text>
      
      <!-- Enhancement metrics -->
      <text x="100" y="10" font-family="Arial, sans-serif" font-size="8" text-anchor="middle" fill="#234567">- Sensitivity: 5-8× improvement</text>
      <text x="100" y="25" font-family="Arial, sans-serif" font-size="8" text-anchor="middle" fill="#234567">- Response time: 40% reduction</text>
    </g>
  </g>
  
  <!-- Footer -->
  <rect x="50" y="1180" width="900" height="20" fill="none"/>
  <text x="500" y="1190" font-family="Arial, sans-serif" font-size="10" text-anchor="middle" fill="#456789">OdAR System with Nanotubular Follicle Integration - Technical Blueprint Rev. 1.0</text>
</svg>
